<?xml version="1.0" encoding="UTF-8" standalone="no"?><svg xmlns="http://www.w3.org/2000/svg" xmlns:xlink="http://www.w3.org/1999/xlink" contentScriptType="application/ecmascript" contentStyleType="text/css" height="119px" preserveAspectRatio="none" style="width:732px;height:119px;" version="1.1" viewBox="0 0 732 119" width="732px" zoomAndPan="magnify"><defs><filter height="300%" id="f1ul3kd0cg6jbl" width="300%" x="-1" y="-1"><feGaussianBlur result="blurOut" stdDeviation="2.0"/><feColorMatrix in="blurOut" result="blurOut2" type="matrix" values="0 0 0 0 0 0 0 0 0 0 0 0 0 0 0 0 0 0 .4 0"/><feOffset dx="4.0" dy="4.0" in="blurOut2" result="blurOut3"/><feBlend in="SourceGraphic" in2="blurOut3" mode="normal"/></filter></defs><g><rect fill="#FEFECE" filter="url(#f1ul3kd0cg6jbl)" height="36.2969" rx="12.5" ry="12.5" style="stroke: #A80036; stroke-width: 1.5;" width="57" x="327" y="42.168"/><text fill="#000000" font-family="sans-serif" font-size="14" lengthAdjust="spacingAndGlyphs" textLength="37" x="337" y="65.1631">Zone</text><text fill="#000000" font-family="sans-serif" font-size="14" lengthAdjust="spacingAndGlyphs" textLength="71" x="437" y="65.1631">Properties</text><text fill="#000000" font-family="sans-serif" font-size="14" lengthAdjust="spacingAndGlyphs" textLength="68" x="561" y="28.5693">Governed</text><path d="M508,60.3164 L518,60.3164 C533,60.3164 533,23.7227 548,23.7227 L558,23.7227 " fill="none" style="stroke: #A80036; stroke-width: 1.0;"/><text fill="#000000" font-family="sans-serif" font-size="14" lengthAdjust="spacingAndGlyphs" textLength="69" x="561" y="46.8662">Historized</text><path d="M508,60.3164 L518,60.3164 C533,60.3164 533,42.0195 548,42.0195 L558,42.0195 " fill="none" style="stroke: #A80036; stroke-width: 1.0;"/><text fill="#000000" font-family="sans-serif" font-size="14" lengthAdjust="spacingAndGlyphs" textLength="70" x="561" y="65.1631">Persistent</text><path d="M508,60.3164 L518,60.3164 C533,60.3164 533,60.3164 548,60.3164 L558,60.3164 " fill="none" style="stroke: #A80036; stroke-width: 1.0;"/><text fill="#000000" font-family="sans-serif" font-size="14" lengthAdjust="spacingAndGlyphs" textLength="68" x="561" y="83.46">Protected</text><path d="M508,60.3164 L518,60.3164 C533,60.3164 533,78.6133 548,78.6133 L558,78.6133 " fill="none" style="stroke: #A80036; stroke-width: 1.0;"/><text fill="#000000" font-family="sans-serif" font-size="14" lengthAdjust="spacingAndGlyphs" textLength="159" x="561" y="101.7568">Use Case Independent</text><path d="M508,60.3164 L518,60.3164 C533,60.3164 533,96.9102 548,96.9102 L558,96.9102 " fill="none" style="stroke: #A80036; stroke-width: 1.0;"/><path d="M384,60.3164 L394,60.3164 C409,60.3164 409,60.3164 424,60.3164 L434,60.3164 " fill="none" style="stroke: #A80036; stroke-width: 1.0;"/><text fill="#000000" font-family="sans-serif" font-size="14" lengthAdjust="spacingAndGlyphs" textLength="138" x="136" y="51.4404">Data Characteristics</text><text fill="#000000" font-family="sans-serif" font-size="14" lengthAdjust="spacingAndGlyphs" textLength="73" x="10" y="23.9951">Granularity</text><path d="M136,46.5938 L126,46.5938 C111,46.5938 111,19.1484 96,19.1484 L86,19.1484 " fill="none" style="stroke: #A80036; stroke-width: 1.0;"/><text fill="#000000" font-family="sans-serif" font-size="14" lengthAdjust="spacingAndGlyphs" textLength="56" x="27" y="42.292">Schema</text><path d="M136,46.5938 L126,46.5938 C111,46.5938 111,37.4453 96,37.4453 L86,37.4453 " fill="none" style="stroke: #A80036; stroke-width: 1.0;"/><text fill="#000000" font-family="sans-serif" font-size="14" lengthAdjust="spacingAndGlyphs" textLength="45" x="38" y="60.5889">Syntax</text><path d="M136,46.5938 L126,46.5938 C111,46.5938 111,55.7422 96,55.7422 L86,55.7422 " fill="none" style="stroke: #A80036; stroke-width: 1.0;"/><text fill="#000000" font-family="sans-serif" font-size="14" lengthAdjust="spacingAndGlyphs" textLength="72" x="11" y="78.8857">Semantics</text><path d="M136,46.5938 L126,46.5938 C111,46.5938 111,74.0391 96,74.0391 L86,74.0391 " fill="none" style="stroke: #A80036; stroke-width: 1.0;"/><path d="M327,60.3164 L317,60.3164 C302,60.3164 302,46.5938 287,46.5938 L277,46.5938 " fill="none" style="stroke: #A80036; stroke-width: 1.0;"/><text fill="#000000" font-family="sans-serif" font-size="14" lengthAdjust="spacingAndGlyphs" textLength="87" x="187" y="69.7373">User Groups</text><path d="M327,60.3164 L317,60.3164 C302,60.3164 302,64.8906 287,64.8906 L277,64.8906 " fill="none" style="stroke: #A80036; stroke-width: 1.0;"/><text fill="#000000" font-family="sans-serif" font-size="14" lengthAdjust="spacingAndGlyphs" textLength="40" x="234" y="88.0342">Name</text><path d="M327,60.3164 L317,60.3164 C302,60.3164 302,83.1875 287,83.1875 L277,83.1875 " fill="none" style="stroke: #A80036; stroke-width: 1.0;"/><text fill="#000000" font-family="sans-serif" font-size="14" lengthAdjust="spacingAndGlyphs" textLength="136" x="138" y="106.3311">Modelling Approach</text><path d="M327,60.3164 L317,60.3164 C302,60.3164 302,101.4844 287,101.4844 L277,101.4844 " fill="none" style="stroke: #A80036; stroke-width: 1.0;"/></g></svg>