<?xml version="1.0" encoding="UTF-8" standalone="no"?><svg xmlns="http://www.w3.org/2000/svg" xmlns:xlink="http://www.w3.org/1999/xlink" contentScriptType="application/ecmascript" contentStyleType="text/css" height="506px" preserveAspectRatio="none" style="width:610px;height:506px;" version="1.1" viewBox="0 0 610 506" width="610px" zoomAndPan="magnify"><defs><filter height="300%" id="fpisbyefx4e49" width="300%" x="-1" y="-1"><feGaussianBlur result="blurOut" stdDeviation="2.0"/><feColorMatrix in="blurOut" result="blurOut2" type="matrix" values="0 0 0 0 0 0 0 0 0 0 0 0 0 0 0 0 0 0 .4 0"/><feOffset dx="4.0" dy="4.0" in="blurOut2" result="blurOut3"/><feBlend in="SourceGraphic" in2="blurOut3" mode="normal"/></filter></defs><g><!--entity ETL--><ellipse cx="92.5" cy="166.5" fill="#FEFECE" filter="url(#fpisbyefx4e49)" rx="8" ry="8" style="stroke: #A80036; stroke-width: 2.0;"/><text fill="#000000" font-family="sans-serif" font-size="14" lengthAdjust="spacingAndGlyphs" textLength="51" x="67" y="196.4951">ETL/API</text><!--entity API--><ellipse cx="92.5" cy="366.5" fill="#FEFECE" filter="url(#fpisbyefx4e49)" rx="8" ry="8" style="stroke: #A80036; stroke-width: 2.0;"/><text fill="#000000" font-family="sans-serif" font-size="14" lengthAdjust="spacingAndGlyphs" textLength="51" x="67" y="396.4951">ETL/API</text><path d="M137,154 L137,162.5 L101.5313,166.5 L137,170.5 L137,179.1328 A0,0 0 0 0 137,179.1328 L320,179.1328 A0,0 0 0 0 320,179.1328 L320,164 L310,154 L137,154 A0,0 0 0 0 137,154 " fill="#FBFB77" filter="url(#fpisbyefx4e49)" style="stroke: #A80036; stroke-width: 1.0;"/><path d="M310,154 L310,164 L320,164 L310,154 " fill="#FBFB77" style="stroke: #A80036; stroke-width: 1.0;"/><text fill="#000000" font-family="sans-serif" font-size="13" lengthAdjust="spacingAndGlyphs" textLength="162" x="143" y="171.0669">Data Lake micro-services</text><path d="M137,354 L137,362.5 L101.6309,366.5 L137,370.5 L137,379.1328 A0,0 0 0 0 137,379.1328 L422,379.1328 A0,0 0 0 0 422,379.1328 L422,364 L412,354 L137,354 A0,0 0 0 0 137,354 " fill="#FBFB77" filter="url(#fpisbyefx4e49)" style="stroke: #A80036; stroke-width: 1.0;"/><path d="M412,354 L412,364 L422,364 L412,354 " fill="#FBFB77" style="stroke: #A80036; stroke-width: 1.0;"/><text fill="#000000" font-family="sans-serif" font-size="13" lengthAdjust="spacingAndGlyphs" textLength="264" x="143" y="371.0669">Data Warehouse micro-services, Airflow...</text><!--entity Data Sources--><rect fill="#FEFECE" filter="url(#fpisbyefx4e49)" height="36.2969" style="stroke: #A80036; stroke-width: 1.5;" width="113" x="36" y="33"/><rect fill="#FEFECE" height="5" style="stroke: #A80036; stroke-width: 1.5;" width="10" x="31" y="38"/><rect fill="#FEFECE" height="5" style="stroke: #A80036; stroke-width: 1.5;" width="10" x="31" y="59.2969"/><text fill="#000000" font-family="sans-serif" font-size="14" lengthAdjust="spacingAndGlyphs" textLength="93" x="46" y="55.9951">Data Sources</text><path d="M184.5,8 L184.5,47 L149.1465,51 L184.5,55 L184.5,93.6641 A0,0 0 0 0 184.5,93.6641 L598.5,93.6641 A0,0 0 0 0 598.5,93.6641 L598.5,18 L588.5,8 L184.5,8 A0,0 0 0 0 184.5,8 " fill="#FBFB77" filter="url(#fpisbyefx4e49)" style="stroke: #A80036; stroke-width: 1.0;"/><path d="M588.5,8 L588.5,18 L598.5,18 L588.5,8 " fill="#FBFB77" style="stroke: #A80036; stroke-width: 1.0;"/><text fill="#000000" font-family="sans-serif" font-size="13" lengthAdjust="spacingAndGlyphs" textLength="393" x="190.5" y="25.0669">Internal Applications (Operational System Databases, Logs...)</text><text fill="#000000" font-family="sans-serif" font-size="13" lengthAdjust="spacingAndGlyphs" textLength="138" x="190.5" y="40.1997">Business Applications</text><text fill="#000000" font-family="sans-serif" font-size="13" lengthAdjust="spacingAndGlyphs" textLength="201" x="190.5" y="55.3325">SaaS Applications (ERP, CRM...)</text><text fill="#000000" font-family="sans-serif" font-size="13" lengthAdjust="spacingAndGlyphs" textLength="74" x="190.5" y="70.4653">Documents</text><text fill="#000000" font-family="sans-serif" font-size="13" lengthAdjust="spacingAndGlyphs" textLength="371" x="190.5" y="85.5981">External Data (Appsflyer, Google Ads, Amplitude, Braze...)</text><!--entity Data Processing Layer--><rect fill="#FEFECE" filter="url(#fpisbyefx4e49)" height="36.2969" style="stroke: #A80036; stroke-width: 1.5;" width="173" x="6" y="248.5"/><rect fill="#FEFECE" height="5" style="stroke: #A80036; stroke-width: 1.5;" width="10" x="1" y="253.5"/><rect fill="#FEFECE" height="5" style="stroke: #A80036; stroke-width: 1.5;" width="10" x="1" y="274.7969"/><text fill="#000000" font-family="sans-serif" font-size="14" lengthAdjust="spacingAndGlyphs" textLength="153" x="16" y="271.4951">Data Processing Layer</text><path d="M214,239 L214,262.5 L179.3359,266.5 L214,270.5 L214,294.3984 A0,0 0 0 0 214,294.3984 L351,294.3984 A0,0 0 0 0 351,294.3984 L351,249 L341,239 L214,239 A0,0 0 0 0 214,239 " fill="#FBFB77" filter="url(#fpisbyefx4e49)" style="stroke: #A80036; stroke-width: 1.0;"/><path d="M341,239 L341,249 L351,249 L341,239 " fill="#FBFB77" style="stroke: #A80036; stroke-width: 1.0;"/><text fill="#000000" font-family="sans-serif" font-size="13" lengthAdjust="spacingAndGlyphs" textLength="103" x="220" y="256.0669">Objects Storage</text><text fill="#000000" font-family="sans-serif" font-size="13" lengthAdjust="spacingAndGlyphs" textLength="116" x="220" y="271.1997">Metadata Storage</text><text fill="#000000" font-family="sans-serif" font-size="13" lengthAdjust="spacingAndGlyphs" textLength="76" x="220" y="286.3325">Replications</text><!--entity Data Targets--><rect fill="#FEFECE" filter="url(#fpisbyefx4e49)" height="36.2969" style="stroke: #A80036; stroke-width: 1.5;" width="109" x="38" y="448.5"/><rect fill="#FEFECE" height="5" style="stroke: #A80036; stroke-width: 1.5;" width="10" x="33" y="453.5"/><rect fill="#FEFECE" height="5" style="stroke: #A80036; stroke-width: 1.5;" width="10" x="33" y="474.7969"/><text fill="#000000" font-family="sans-serif" font-size="14" lengthAdjust="spacingAndGlyphs" textLength="89" x="48" y="471.4951">Data Targets</text><path d="M182,439 L182,462.5 L147.2852,466.5 L182,470.5 L182,494.3984 A0,0 0 0 0 182,494.3984 L343,494.3984 A0,0 0 0 0 343,494.3984 L343,449 L333,439 L182,439 A0,0 0 0 0 182,439 " fill="#FBFB77" filter="url(#fpisbyefx4e49)" style="stroke: #A80036; stroke-width: 1.0;"/><path d="M333,439 L333,449 L343,449 L333,439 " fill="#FBFB77" style="stroke: #A80036; stroke-width: 1.0;"/><text fill="#000000" font-family="sans-serif" font-size="13" lengthAdjust="spacingAndGlyphs" textLength="106" x="188" y="456.0669">Data Warehouse</text><text fill="#000000" font-family="sans-serif" font-size="13" lengthAdjust="spacingAndGlyphs" textLength="77" x="188" y="471.1997">BI Platforms</text><text fill="#000000" font-family="sans-serif" font-size="13" lengthAdjust="spacingAndGlyphs" textLength="140" x="188" y="486.3325">Data Science Projects</text><!--link Data Sources to ETL--><path d="M92.5,69.0469 C92.5,91.994 92.5,131.1512 92.5,152.1658 " fill="none" id="Data Sources-ETL" style="stroke: #A80036; stroke-width: 1.0;"/><polygon fill="#A80036" points="92.5,157.3404,96.5,148.3404,92.5,152.3404,88.5,148.3404,92.5,157.3404" style="stroke: #A80036; stroke-width: 1.0;"/><!--link ETL to Data Processing Layer--><path d="M92.5,175.7285 C92.5,190.8836 92.5,221.5016 92.5,242.9705 " fill="none" id="ETL-Data Processing Layer" style="stroke: #A80036; stroke-width: 1.0;"/><polygon fill="#A80036" points="92.5,248.2166,96.5,239.2166,92.5,243.2166,88.5,239.2166,92.5,248.2166" style="stroke: #A80036; stroke-width: 1.0;"/><!--link Data Processing Layer to API--><path d="M92.5,284.8415 C92.5,304.2591 92.5,334.4982 92.5,352.2171 " fill="none" id="Data Processing Layer-API" style="stroke: #A80036; stroke-width: 1.0;"/><polygon fill="#A80036" points="92.5,357.2882,96.5,348.2882,92.5,352.2882,88.5,348.2882,92.5,357.2882" style="stroke: #A80036; stroke-width: 1.0;"/><!--link API to Data Targets--><path d="M92.5,375.7285 C92.5,390.8836 92.5,421.5016 92.5,442.9705 " fill="none" id="API-Data Targets" style="stroke: #A80036; stroke-width: 1.0;"/><polygon fill="#A80036" points="92.5,448.2166,96.5,439.2166,92.5,443.2166,88.5,439.2166,92.5,448.2166" style="stroke: #A80036; stroke-width: 1.0;"/></g></svg>