<?xml version="1.0" encoding="UTF-8" standalone="no"?><svg xmlns="http://www.w3.org/2000/svg" xmlns:xlink="http://www.w3.org/1999/xlink" contentScriptType="application/ecmascript" contentStyleType="text/css" height="765px" preserveAspectRatio="none" style="width:703px;height:765px;" version="1.1" viewBox="0 0 703 765" width="703px" zoomAndPan="magnify"><defs><filter height="300%" id="f7mgukmkfgspq" width="300%" x="-1" y="-1"><feGaussianBlur result="blurOut" stdDeviation="2.0"/><feColorMatrix in="blurOut" result="blurOut2" type="matrix" values="0 0 0 0 0 0 0 0 0 0 0 0 0 0 0 0 0 0 .4 0"/><feOffset dx="4.0" dy="4.0" in="blurOut2" result="blurOut3"/><feBlend in="SourceGraphic" in2="blurOut3" mode="normal"/></filter></defs><g><!--entity DataSources--><rect fill="#FEFECE" filter="url(#f7mgukmkfgspq)" height="36.2969" style="stroke: #A80036; stroke-width: 1.5;" width="113" x="6" y="17.5"/><rect fill="#FEFECE" height="5" style="stroke: #A80036; stroke-width: 1.5;" width="10" x="1" y="22.5"/><rect fill="#FEFECE" height="5" style="stroke: #A80036; stroke-width: 1.5;" width="10" x="1" y="43.7969"/><text fill="#000000" font-family="sans-serif" font-size="14" lengthAdjust="spacingAndGlyphs" textLength="93" x="16" y="40.4951">Data Sources</text><path d="M154.5,8 L154.5,31.5 L119.2461,35.5 L154.5,39.5 L154.5,63.3984 A0,0 0 0 0 154.5,63.3984 L262.5,63.3984 A0,0 0 0 0 262.5,63.3984 L262.5,18 L252.5,8 L154.5,8 A0,0 0 0 0 154.5,8 " fill="#FBFB77" filter="url(#f7mgukmkfgspq)" style="stroke: #A80036; stroke-width: 1.0;"/><path d="M252.5,8 L252.5,18 L262.5,18 L252.5,8 " fill="#FBFB77" style="stroke: #A80036; stroke-width: 1.0;"/><text fill="#000000" font-family="sans-serif" font-size="13" lengthAdjust="spacingAndGlyphs" textLength="65" x="160.5" y="25.0669">Data Lake</text><text fill="#000000" font-family="sans-serif" font-size="13" lengthAdjust="spacingAndGlyphs" textLength="83" x="160.5" y="40.1997">Internal Data</text><text fill="#000000" font-family="sans-serif" font-size="13" lengthAdjust="spacingAndGlyphs" textLength="87" x="160.5" y="55.3325">External Data</text><!--entity IDataWarehouseETLs--><ellipse cx="62.5" cy="150.5" fill="#FEFECE" filter="url(#f7mgukmkfgspq)" rx="8" ry="8" style="stroke: #A80036; stroke-width: 2.0;"/><text fill="#000000" font-family="sans-serif" font-size="14" lengthAdjust="spacingAndGlyphs" textLength="63" x="31" y="180.4951">ETL tools</text><path d="M106,123 L106,146.5 L71.7188,150.5 L106,154.5 L106,178.3984 A0,0 0 0 0 106,178.3984 L255,178.3984 A0,0 0 0 0 255,178.3984 L255,133 L245,123 L106,123 A0,0 0 0 0 106,123 " fill="#FBFB77" filter="url(#f7mgukmkfgspq)" style="stroke: #A80036; stroke-width: 1.0;"/><path d="M245,123 L245,133 L255,133 L245,123 " fill="#FBFB77" style="stroke: #A80036; stroke-width: 1.0;"/><text fill="#000000" font-family="sans-serif" font-size="13" lengthAdjust="spacingAndGlyphs" textLength="128" x="112" y="140.0669">Data micro-services</text><text fill="#000000" font-family="sans-serif" font-size="13" lengthAdjust="spacingAndGlyphs" textLength="41" x="112" y="155.1997">Airflow</text><text fill="#000000" font-family="sans-serif" font-size="13" lengthAdjust="spacingAndGlyphs" textLength="51" x="112" y="170.3325">Fivetran</text><!--entity DataStaging--><path d="M8.5,248 C8.5,238 62.5,238 62.5,238 C62.5,238 116.5,238 116.5,248 L116.5,273.2969 C116.5,283.2969 62.5,283.2969 62.5,283.2969 C62.5,283.2969 8.5,283.2969 8.5,273.2969 L8.5,248 " fill="#FEFECE" filter="url(#f7mgukmkfgspq)" style="stroke: #000000; stroke-width: 1.5;"/><path d="M8.5,248 C8.5,258 62.5,258 62.5,258 C62.5,258 116.5,258 116.5,248 " fill="none" style="stroke: #000000; stroke-width: 1.5;"/><text fill="#000000" font-family="sans-serif" font-size="14" lengthAdjust="spacingAndGlyphs" textLength="88" x="18.5" y="274.9951">Data Staging</text><path d="M151.5,248 L151.5,256.5 L116.5859,260.5 L151.5,264.5 L151.5,273.1328 A0,0 0 0 0 151.5,273.1328 L295.5,273.1328 A0,0 0 0 0 295.5,273.1328 L295.5,258 L285.5,248 L151.5,248 A0,0 0 0 0 151.5,248 " fill="#FBFB77" filter="url(#f7mgukmkfgspq)" style="stroke: #A80036; stroke-width: 1.0;"/><path d="M285.5,248 L285.5,258 L295.5,258 L285.5,248 " fill="#FBFB77" style="stroke: #A80036; stroke-width: 1.0;"/><text fill="#000000" font-family="sans-serif" font-size="13" lengthAdjust="spacingAndGlyphs" textLength="123" x="157.5" y="265.0669">Data Staging Layer</text><!--entity DataWarehouse--><path d="M150,353 C150,343 217.5,343 217.5,343 C217.5,343 285,343 285,353 L285,378.2969 C285,388.2969 217.5,388.2969 217.5,388.2969 C217.5,388.2969 150,388.2969 150,378.2969 L150,353 " fill="#FEFECE" filter="url(#f7mgukmkfgspq)" style="stroke: #000000; stroke-width: 1.5;"/><path d="M150,353 C150,363 217.5,363 217.5,363 C217.5,363 285,363 285,353 " fill="none" style="stroke: #000000; stroke-width: 1.5;"/><text fill="#000000" font-family="sans-serif" font-size="14" lengthAdjust="spacingAndGlyphs" textLength="115" x="160" y="379.9951">Data Warehouse</text><path d="M320.5,353 L320.5,361.5 L285.0703,365.5 L320.5,369.5 L320.5,378.1328 A0,0 0 0 0 320.5,378.1328 L486.5,378.1328 A0,0 0 0 0 486.5,378.1328 L486.5,363 L476.5,353 L320.5,353 A0,0 0 0 0 320.5,353 " fill="#FBFB77" filter="url(#f7mgukmkfgspq)" style="stroke: #A80036; stroke-width: 1.0;"/><path d="M476.5,353 L476.5,363 L486.5,363 L476.5,353 " fill="#FBFB77" style="stroke: #A80036; stroke-width: 1.0;"/><text fill="#000000" font-family="sans-serif" font-size="13" lengthAdjust="spacingAndGlyphs" textLength="145" x="326.5" y="370.0669">Data Warehouse Layer</text><!--entity Metadata--><path d="M330.5,248 C330.5,238 372.5,238 372.5,238 C372.5,238 414.5,238 414.5,248 L414.5,273.2969 C414.5,283.2969 372.5,283.2969 372.5,283.2969 C372.5,283.2969 330.5,283.2969 330.5,273.2969 L330.5,248 " fill="#FEFECE" filter="url(#f7mgukmkfgspq)" style="stroke: #000000; stroke-width: 1.5;"/><path d="M330.5,248 C330.5,258 372.5,258 372.5,258 C372.5,258 414.5,258 414.5,248 " fill="none" style="stroke: #000000; stroke-width: 1.5;"/><text fill="#000000" font-family="sans-serif" font-size="14" lengthAdjust="spacingAndGlyphs" textLength="64" x="340.5" y="274.9951">Metadata</text><!--entity IDataMartsETLs--><ellipse cx="217.5" cy="475.5" fill="#FEFECE" filter="url(#f7mgukmkfgspq)" rx="8" ry="8" style="stroke: #A80036; stroke-width: 2.0;"/><text fill="#000000" font-family="sans-serif" font-size="14" lengthAdjust="spacingAndGlyphs" textLength="63" x="186" y="505.4951">ETL tools</text><path d="M261,448 L261,471.5 L226.7188,475.5 L261,479.5 L261,503.3984 A0,0 0 0 0 261,503.3984 L410,503.3984 A0,0 0 0 0 410,503.3984 L410,458 L400,448 L261,448 A0,0 0 0 0 261,448 " fill="#FBFB77" filter="url(#f7mgukmkfgspq)" style="stroke: #A80036; stroke-width: 1.0;"/><path d="M400,448 L400,458 L410,458 L400,448 " fill="#FBFB77" style="stroke: #A80036; stroke-width: 1.0;"/><text fill="#000000" font-family="sans-serif" font-size="13" lengthAdjust="spacingAndGlyphs" textLength="128" x="267" y="465.0669">Data micro-services</text><text fill="#000000" font-family="sans-serif" font-size="13" lengthAdjust="spacingAndGlyphs" textLength="41" x="267" y="480.1997">Airflow</text><text fill="#000000" font-family="sans-serif" font-size="13" lengthAdjust="spacingAndGlyphs" textLength="21" x="267" y="495.3325">dbt</text><!--entity DataMarts--><path d="M170.5,573 C170.5,563 217.5,563 217.5,563 C217.5,563 264.5,563 264.5,573 L264.5,598.2969 C264.5,608.2969 217.5,608.2969 217.5,608.2969 C217.5,608.2969 170.5,608.2969 170.5,598.2969 L170.5,573 " fill="#FEFECE" filter="url(#f7mgukmkfgspq)" style="stroke: #000000; stroke-width: 1.5;"/><path d="M170.5,573 C170.5,583 217.5,583 217.5,583 C217.5,583 264.5,583 264.5,573 " fill="none" style="stroke: #000000; stroke-width: 1.5;"/><text fill="#000000" font-family="sans-serif" font-size="14" lengthAdjust="spacingAndGlyphs" textLength="74" x="180.5" y="599.9951">Data Marts</text><path d="M299.5,573 L299.5,581.5 L264.7383,585.5 L299.5,589.5 L299.5,598.1328 A0,0 0 0 0 299.5,598.1328 L691.5,598.1328 A0,0 0 0 0 691.5,598.1328 L691.5,583 L681.5,573 L299.5,573 A0,0 0 0 0 299.5,573 " fill="#FBFB77" filter="url(#f7mgukmkfgspq)" style="stroke: #A80036; stroke-width: 1.0;"/><path d="M681.5,573 L681.5,583 L691.5,583 L681.5,573 " fill="#FBFB77" style="stroke: #A80036; stroke-width: 1.0;"/><text fill="#000000" font-family="sans-serif" font-size="13" lengthAdjust="spacingAndGlyphs" textLength="371" x="305.5" y="590.0669">Data Marts for specific Business Units/Departments/Areas</text><!--entity AnalysisLayer--><rect fill="#FEFECE" filter="url(#f7mgukmkfgspq)" height="36.2969" style="stroke: #A80036; stroke-width: 1.5;" width="187" x="124" y="693"/><rect fill="#FEFECE" height="5" style="stroke: #A80036; stroke-width: 1.5;" width="10" x="119" y="698"/><rect fill="#FEFECE" height="5" style="stroke: #A80036; stroke-width: 1.5;" width="10" x="119" y="719.2969"/><text fill="#000000" font-family="sans-serif" font-size="14" lengthAdjust="spacingAndGlyphs" textLength="167" x="134" y="715.9951">End Users Access Tools</text><path d="M346,668 L346,707 L311.1328,711 L346,715 L346,753.6641 A0,0 0 0 0 346,753.6641 L465,753.6641 A0,0 0 0 0 465,753.6641 L465,678 L455,668 L346,668 A0,0 0 0 0 346,668 " fill="#FBFB77" filter="url(#f7mgukmkfgspq)" style="stroke: #A80036; stroke-width: 1.0;"/><path d="M455,668 L455,678 L465,678 L455,668 " fill="#FBFB77" style="stroke: #A80036; stroke-width: 1.0;"/><text fill="#000000" font-family="sans-serif" font-size="13" lengthAdjust="spacingAndGlyphs" textLength="77" x="352" y="685.0669">BI Platforms</text><text fill="#000000" font-family="sans-serif" font-size="13" lengthAdjust="spacingAndGlyphs" textLength="98" x="352" y="700.1997">Reporting Tools</text><text fill="#000000" font-family="sans-serif" font-size="13" lengthAdjust="spacingAndGlyphs" textLength="34" x="352" y="715.3325">OLAP</text><text fill="#000000" font-family="sans-serif" font-size="13" lengthAdjust="spacingAndGlyphs" textLength="77" x="352" y="730.4653">Dashboards</text><text fill="#000000" font-family="sans-serif" font-size="13" lengthAdjust="spacingAndGlyphs" textLength="76" x="352" y="745.5981">Data Mining</text><!--link DataSources to IDataWarehouseETLs--><path d="M62.5,53.7221 C62.5,76.6286 62.5,115.4656 62.5,136.2957 " fill="none" id="DataSources-IDataWarehouseETLs" style="stroke: #A80036; stroke-width: 1.0;"/><polygon fill="#A80036" points="62.5,141.4244,66.5,132.4244,62.5,136.4244,58.5,132.4244,62.5,141.4244" style="stroke: #A80036; stroke-width: 1.0;"/><!--link IDataWarehouseETLs to DataStaging--><path d="M62.5,159.5018 C62.5,175.2438 62.5,208.3842 62.5,232.42 " fill="none" id="IDataWarehouseETLs-DataStaging" style="stroke: #A80036; stroke-width: 1.0;"/><polygon fill="#A80036" points="62.5,237.7058,66.5,228.7058,62.5,232.7058,58.5,228.7058,62.5,237.7058" style="stroke: #A80036; stroke-width: 1.0;"/><!--link DataStaging to DataWarehouse--><path d="M95.7514,283.0251 C120.3894,299.7154 154.0001,322.4839 179.6653,339.87 " fill="none" id="DataStaging-DataWarehouse" style="stroke: #A80036; stroke-width: 1.0;"/><polygon fill="#A80036" points="184.0365,342.8312,178.8287,334.4718,179.8969,340.0269,174.3419,341.0951,184.0365,342.8312" style="stroke: #A80036; stroke-width: 1.0;"/><!--link Metadata to DataWarehouse--><path d="M334.8858,285.9806 C310.7674,302.3189 279.5644,323.4564 255.3919,339.8313 " fill="none" id="Metadata-DataWarehouse" style="stroke: #A80036; stroke-width: 1.0;"/><polygon fill="#A80036" points="250.9635,342.8312,260.6581,341.0951,255.1031,340.0269,256.1713,334.4718,250.9635,342.8312" style="stroke: #A80036; stroke-width: 1.0;"/><polygon fill="#A80036" points="339.2486,283.0251,329.554,284.7612,335.109,285.8294,334.0408,291.3845,339.2486,283.0251" style="stroke: #A80036; stroke-width: 1.0;"/><!--link DataWarehouse to IDataMartsETLs--><path d="M217.5,388.0256 C217.5,409.8992 217.5,442.4494 217.5,461.0576 " fill="none" id="DataWarehouse-IDataMartsETLs" style="stroke: #A80036; stroke-width: 1.0;"/><polygon fill="#A80036" points="217.5,466.3577,221.5,457.3577,217.5,461.3577,213.5,457.3577,217.5,466.3577" style="stroke: #A80036; stroke-width: 1.0;"/><!--link IDataMartsETLs to DataMarts--><path d="M217.5,484.5018 C217.5,500.2438 217.5,533.3842 217.5,557.42 " fill="none" id="IDataMartsETLs-DataMarts" style="stroke: #A80036; stroke-width: 1.0;"/><polygon fill="#A80036" points="217.5,562.7058,221.5,553.7058,217.5,557.7058,213.5,553.7058,217.5,562.7058" style="stroke: #A80036; stroke-width: 1.0;"/><!--link DataMarts to AnalysisLayer--><path d="M217.5,613.2411 C217.5,635.613 217.5,666.7161 217.5,687.7855 " fill="none" id="DataMarts-AnalysisLayer" style="stroke: #A80036; stroke-width: 1.0;"/><polygon fill="#A80036" points="217.5,692.9145,221.5,683.9145,217.5,687.9145,213.5,683.9145,217.5,692.9145" style="stroke: #A80036; stroke-width: 1.0;"/><polygon fill="#A80036" points="217.5,608.2271,213.5,617.2271,217.5,613.2271,221.5,617.2271,217.5,608.2271" style="stroke: #A80036; stroke-width: 1.0;"/></g></svg>