<?xml version="1.0" encoding="UTF-8" standalone="no"?><svg xmlns="http://www.w3.org/2000/svg" xmlns:xlink="http://www.w3.org/1999/xlink" contentScriptType="application/ecmascript" contentStyleType="text/css" height="765px" preserveAspectRatio="none" style="width:703px;height:765px;" version="1.1" viewBox="0 0 703 765" width="703px" zoomAndPan="magnify"><defs><filter height="300%" id="f7mgukmkfgspq" width="300%" x="-1" y="-1"><feGaussianBlur result="blurOut" stdDeviation="2.0"/><feColorMatrix in="blurOut" result="blurOut2" type="matrix" values="0 0 0 0 0 0 0 0 0 0 0 0 0 0 0 0 0 0 .4 0"/><feOffset dx="4.0" dy="4.0" in="blurOut2" result="blurOut3"/><feBlend in="SourceGraphic" in2="blurOut3" mode="normal"/></filter></defs><g><!--MD5=[05244f33567796f9566f346f635214bb]
entity DataSources--><rect fill="#FEFECE" filter="url(#f7mgukmkfgspq)" height="36.2969" style="stroke: #A80036; stroke-width: 1.5;" width="113" x="6" y="17.5"/><rect fill="#FEFECE" height="5" style="stroke: #A80036; stroke-width: 1.5;" width="10" x="1" y="22.5"/><rect fill="#FEFECE" height="5" style="stroke: #A80036; stroke-width: 1.5;" width="10" x="1" y="43.7969"/><text fill="#000000" font-family="sans-serif" font-size="14" lengthAdjust="spacingAndGlyphs" textLength="93" x="16" y="40.4951">Data Sources</text><path d="M154.5,8 L154.5,31.5 L119.25,35.5 L154.5,39.5 L154.5,63.3984 A0,0 0 0 0 154.5,63.3984 L262.5,63.3984 A0,0 0 0 0 262.5,63.3984 L262.5,18 L252.5,8 L154.5,8 A0,0 0 0 0 154.5,8 " fill="#FBFB77" filter="url(#f7mgukmkfgspq)" style="stroke: #A80036; stroke-width: 1.0;"/><path d="M252.5,8 L252.5,18 L262.5,18 L252.5,8 " fill="#FBFB77" style="stroke: #A80036; stroke-width: 1.0;"/><text fill="#000000" font-family="sans-serif" font-size="13" lengthAdjust="spacingAndGlyphs" textLength="65" x="160.5" y="25.0669">Data Lake</text><text fill="#000000" font-family="sans-serif" font-size="13" lengthAdjust="spacingAndGlyphs" textLength="83" x="160.5" y="40.1997">Internal Data</text><text fill="#000000" font-family="sans-serif" font-size="13" lengthAdjust="spacingAndGlyphs" textLength="87" x="160.5" y="55.3325">External Data</text><!--MD5=[bf8b3f0b9d01335381ca128df0cda171]
entity IDataWarehouseETLs--><ellipse cx="62.5" cy="150.5" fill="#FEFECE" filter="url(#f7mgukmkfgspq)" rx="8" ry="8" style="stroke: #A80036; stroke-width: 2.0;"/><text fill="#000000" font-family="sans-serif" font-size="14" lengthAdjust="spacingAndGlyphs" textLength="63" x="31" y="180.4951">ETL tools</text><path d="M106,123 L106,146.5 L71.72,150.5 L106,154.5 L106,178.3984 A0,0 0 0 0 106,178.3984 L255,178.3984 A0,0 0 0 0 255,178.3984 L255,133 L245,123 L106,123 A0,0 0 0 0 106,123 " fill="#FBFB77" filter="url(#f7mgukmkfgspq)" style="stroke: #A80036; stroke-width: 1.0;"/><path d="M245,123 L245,133 L255,133 L245,123 " fill="#FBFB77" style="stroke: #A80036; stroke-width: 1.0;"/><text fill="#000000" font-family="sans-serif" font-size="13" lengthAdjust="spacingAndGlyphs" textLength="128" x="112" y="140.0669">Data micro-services</text><text fill="#000000" font-family="sans-serif" font-size="13" lengthAdjust="spacingAndGlyphs" textLength="41" x="112" y="155.1997">Airflow</text><text fill="#000000" font-family="sans-serif" font-size="13" lengthAdjust="spacingAndGlyphs" textLength="51" x="112" y="170.3325">Fivetran</text><!--MD5=[b8b6bd11b844cbabd3aae9564ec7f6c8]
entity DataStaging--><path d="M8.5,248 C8.5,238 62.5,238 62.5,238 C62.5,238 116.5,238 116.5,248 L116.5,273.2969 C116.5,283.2969 62.5,283.2969 62.5,283.2969 C62.5,283.2969 8.5,283.2969 8.5,273.2969 L8.5,248 " fill="#FEFECE" filter="url(#f7mgukmkfgspq)" style="stroke: #000000; stroke-width: 1.5;"/><path d="M8.5,248 C8.5,258 62.5,258 62.5,258 C62.5,258 116.5,258 116.5,248 " fill="none" style="stroke: #000000; stroke-width: 1.5;"/><text fill="#000000" font-family="sans-serif" font-size="14" lengthAdjust="spacingAndGlyphs" textLength="88" x="18.5" y="274.9951">Data Staging</text><path d="M151.5,248 L151.5,256.5 L116.59,260.5 L151.5,264.5 L151.5,273.1328 A0,0 0 0 0 151.5,273.1328 L295.5,273.1328 A0,0 0 0 0 295.5,273.1328 L295.5,258 L285.5,248 L151.5,248 A0,0 0 0 0 151.5,248 " fill="#FBFB77" filter="url(#f7mgukmkfgspq)" style="stroke: #A80036; stroke-width: 1.0;"/><path d="M285.5,248 L285.5,258 L295.5,258 L285.5,248 " fill="#FBFB77" style="stroke: #A80036; stroke-width: 1.0;"/><text fill="#000000" font-family="sans-serif" font-size="13" lengthAdjust="spacingAndGlyphs" textLength="123" x="157.5" y="265.0669">Data Staging Layer</text><!--MD5=[2083a564367558674a493bc10de5982a]
entity DataWarehouse--><path d="M150,353 C150,343 217.5,343 217.5,343 C217.5,343 285,343 285,353 L285,378.2969 C285,388.2969 217.5,388.2969 217.5,388.2969 C217.5,388.2969 150,388.2969 150,378.2969 L150,353 " fill="#FEFECE" filter="url(#f7mgukmkfgspq)" style="stroke: #000000; stroke-width: 1.5;"/><path d="M150,353 C150,363 217.5,363 217.5,363 C217.5,363 285,363 285,353 " fill="none" style="stroke: #000000; stroke-width: 1.5;"/><text fill="#000000" font-family="sans-serif" font-size="14" lengthAdjust="spacingAndGlyphs" textLength="115" x="160" y="379.9951">Data Warehouse</text><path d="M320.5,353 L320.5,361.5 L285.07,365.5 L320.5,369.5 L320.5,378.1328 A0,0 0 0 0 320.5,378.1328 L486.5,378.1328 A0,0 0 0 0 486.5,378.1328 L486.5,363 L476.5,353 L320.5,353 A0,0 0 0 0 320.5,353 " fill="#FBFB77" filter="url(#f7mgukmkfgspq)" style="stroke: #A80036; stroke-width: 1.0;"/><path d="M476.5,353 L476.5,363 L486.5,363 L476.5,353 " fill="#FBFB77" style="stroke: #A80036; stroke-width: 1.0;"/><text fill="#000000" font-family="sans-serif" font-size="13" lengthAdjust="spacingAndGlyphs" textLength="145" x="326.5" y="370.0669">Data Warehouse Layer</text><!--MD5=[56aa73e62b8809ef6c50eb50ecd20c23]
entity Metadata--><path d="M330.5,248 C330.5,238 372.5,238 372.5,238 C372.5,238 414.5,238 414.5,248 L414.5,273.2969 C414.5,283.2969 372.5,283.2969 372.5,283.2969 C372.5,283.2969 330.5,283.2969 330.5,273.2969 L330.5,248 " fill="#FEFECE" filter="url(#f7mgukmkfgspq)" style="stroke: #000000; stroke-width: 1.5;"/><path d="M330.5,248 C330.5,258 372.5,258 372.5,258 C372.5,258 414.5,258 414.5,248 " fill="none" style="stroke: #000000; stroke-width: 1.5;"/><text fill="#000000" font-family="sans-serif" font-size="14" lengthAdjust="spacingAndGlyphs" textLength="64" x="340.5" y="274.9951">Metadata</text><!--MD5=[812ada8f582cba06f0f9705a48751469]
entity IDataMartsETLs--><ellipse cx="217.5" cy="475.5" fill="#FEFECE" filter="url(#f7mgukmkfgspq)" rx="8" ry="8" style="stroke: #A80036; stroke-width: 2.0;"/><text fill="#000000" font-family="sans-serif" font-size="14" lengthAdjust="spacingAndGlyphs" textLength="63" x="186" y="505.4951">ETL tools</text><path d="M261,448 L261,471.5 L226.72,475.5 L261,479.5 L261,503.3984 A0,0 0 0 0 261,503.3984 L410,503.3984 A0,0 0 0 0 410,503.3984 L410,458 L400,448 L261,448 A0,0 0 0 0 261,448 " fill="#FBFB77" filter="url(#f7mgukmkfgspq)" style="stroke: #A80036; stroke-width: 1.0;"/><path d="M400,448 L400,458 L410,458 L400,448 " fill="#FBFB77" style="stroke: #A80036; stroke-width: 1.0;"/><text fill="#000000" font-family="sans-serif" font-size="13" lengthAdjust="spacingAndGlyphs" textLength="128" x="267" y="465.0669">Data micro-services</text><text fill="#000000" font-family="sans-serif" font-size="13" lengthAdjust="spacingAndGlyphs" textLength="41" x="267" y="480.1997">Airflow</text><text fill="#000000" font-family="sans-serif" font-size="13" lengthAdjust="spacingAndGlyphs" textLength="21" x="267" y="495.3325">dbt</text><!--MD5=[035db8c501043c0e24e8bebf71acc011]
entity DataMarts--><path d="M170.5,573 C170.5,563 217.5,563 217.5,563 C217.5,563 264.5,563 264.5,573 L264.5,598.2969 C264.5,608.2969 217.5,608.2969 217.5,608.2969 C217.5,608.2969 170.5,608.2969 170.5,598.2969 L170.5,573 " fill="#FEFECE" filter="url(#f7mgukmkfgspq)" style="stroke: #000000; stroke-width: 1.5;"/><path d="M170.5,573 C170.5,583 217.5,583 217.5,583 C217.5,583 264.5,583 264.5,573 " fill="none" style="stroke: #000000; stroke-width: 1.5;"/><text fill="#000000" font-family="sans-serif" font-size="14" lengthAdjust="spacingAndGlyphs" textLength="74" x="180.5" y="599.9951">Data Marts</text><path d="M299.5,573 L299.5,581.5 L264.74,585.5 L299.5,589.5 L299.5,598.1328 A0,0 0 0 0 299.5,598.1328 L691.5,598.1328 A0,0 0 0 0 691.5,598.1328 L691.5,583 L681.5,573 L299.5,573 A0,0 0 0 0 299.5,573 " fill="#FBFB77" filter="url(#f7mgukmkfgspq)" style="stroke: #A80036; stroke-width: 1.0;"/><path d="M681.5,573 L681.5,583 L691.5,583 L681.5,573 " fill="#FBFB77" style="stroke: #A80036; stroke-width: 1.0;"/><text fill="#000000" font-family="sans-serif" font-size="13" lengthAdjust="spacingAndGlyphs" textLength="371" x="305.5" y="590.0669">Data Marts for specific Business Units/Departments/Areas</text><!--MD5=[c4800f5be070dbd164baf792609e8ac7]
entity AnalysisLayer--><rect fill="#FEFECE" filter="url(#f7mgukmkfgspq)" height="36.2969" style="stroke: #A80036; stroke-width: 1.5;" width="187" x="124" y="693"/><rect fill="#FEFECE" height="5" style="stroke: #A80036; stroke-width: 1.5;" width="10" x="119" y="698"/><rect fill="#FEFECE" height="5" style="stroke: #A80036; stroke-width: 1.5;" width="10" x="119" y="719.2969"/><text fill="#000000" font-family="sans-serif" font-size="14" lengthAdjust="spacingAndGlyphs" textLength="167" x="134" y="715.9951">End Users Access Tools</text><path d="M346,668 L346,707 L311.13,711 L346,715 L346,753.6641 A0,0 0 0 0 346,753.6641 L465,753.6641 A0,0 0 0 0 465,753.6641 L465,678 L455,668 L346,668 A0,0 0 0 0 346,668 " fill="#FBFB77" filter="url(#f7mgukmkfgspq)" style="stroke: #A80036; stroke-width: 1.0;"/><path d="M455,668 L455,678 L465,678 L455,668 " fill="#FBFB77" style="stroke: #A80036; stroke-width: 1.0;"/><text fill="#000000" font-family="sans-serif" font-size="13" lengthAdjust="spacingAndGlyphs" textLength="77" x="352" y="685.0669">BI Platforms</text><text fill="#000000" font-family="sans-serif" font-size="13" lengthAdjust="spacingAndGlyphs" textLength="98" x="352" y="700.1997">Reporting Tools</text><text fill="#000000" font-family="sans-serif" font-size="13" lengthAdjust="spacingAndGlyphs" textLength="34" x="352" y="715.3325">OLAP</text><text fill="#000000" font-family="sans-serif" font-size="13" lengthAdjust="spacingAndGlyphs" textLength="77" x="352" y="730.4653">Dashboards</text><text fill="#000000" font-family="sans-serif" font-size="13" lengthAdjust="spacingAndGlyphs" textLength="76" x="352" y="745.5981">Data Mining</text><!--MD5=[972e4988f041820763f3aa558d4229cd]
link DataSources to IDataWarehouseETLs--><path d="M62.5,53.66 C62.5,76.33 62.5,115.78 62.5,136.28 " fill="none" id="DataSources-&gt;IDataWarehouseETLs" style="stroke: #A80036; stroke-width: 1.0;"/><polygon fill="#A80036" points="62.5,141.29,66.5,132.29,62.5,136.29,58.5,132.29,62.5,141.29" style="stroke: #A80036; stroke-width: 1.0;"/><!--MD5=[84dcaafe9ef3922fd852293f4204ee1e]
link IDataWarehouseETLs to DataStaging--><path d="M62.5,159.62 C62.5,174.85 62.5,208.34 62.5,232.35 " fill="none" id="IDataWarehouseETLs-&gt;DataStaging" style="stroke: #A80036; stroke-width: 1.0;"/><polygon fill="#A80036" points="62.5,237.62,66.5,228.62,62.5,232.62,58.5,228.62,62.5,237.62" style="stroke: #A80036; stroke-width: 1.0;"/><!--MD5=[c9f2e8f9e2adfc70d7addbdedaf039b8]
link DataStaging to DataWarehouse--><path d="M94.99,283.09 C120,299.71 154.57,322.69 180.62,339.99 " fill="none" id="DataStaging-&gt;DataWarehouse" style="stroke: #A80036; stroke-width: 1.0;"/><polygon fill="#A80036" points="185.05,342.94,179.7474,334.6404,180.8788,340.183,175.3362,341.3144,185.05,342.94" style="stroke: #A80036; stroke-width: 1.0;"/><!--MD5=[2d798620e4d929677644387ebbe6e0ea]
link Metadata to DataWarehouse--><path d="M335.57,286.04 C310.95,302.4 278.7,323.83 254.13,340.16 " fill="none" id="Metadata-DataWarehouse" style="stroke: #A80036; stroke-width: 1.0;"/><polygon fill="#A80036" points="249.95,342.94,259.6638,341.3144,254.1212,340.183,255.2526,334.6404,249.95,342.94" style="stroke: #A80036; stroke-width: 1.0;"/><polygon fill="#A80036" points="340.01,283.09,330.3001,284.7387,335.8454,285.8569,334.7272,291.4022,340.01,283.09" style="stroke: #A80036; stroke-width: 1.0;"/><!--MD5=[da4bfb151ee99ccdb24fc8fdd6c04c01]
link DataWarehouse to IDataMartsETLs--><path d="M217.5,388.1 C217.5,409.96 217.5,443.08 217.5,461.31 " fill="none" id="DataWarehouse-&gt;IDataMartsETLs" style="stroke: #A80036; stroke-width: 1.0;"/><polygon fill="#A80036" points="217.5,466.46,221.5,457.46,217.5,461.46,213.5,457.46,217.5,466.46" style="stroke: #A80036; stroke-width: 1.0;"/><!--MD5=[f60f0a87dd265fc5518d5133b87992f2]
link IDataMartsETLs to DataMarts--><path d="M217.5,484.62 C217.5,499.85 217.5,533.34 217.5,557.35 " fill="none" id="IDataMartsETLs-&gt;DataMarts" style="stroke: #A80036; stroke-width: 1.0;"/><polygon fill="#A80036" points="217.5,562.62,221.5,553.62,217.5,557.62,213.5,553.62,217.5,562.62" style="stroke: #A80036; stroke-width: 1.0;"/><!--MD5=[10e77e0fba6c17e64ea35b249152f7eb]
link DataMarts to AnalysisLayer--><path d="M217.5,613.29 C217.5,635.51 217.5,666.74 217.5,687.64 " fill="none" id="DataMarts-AnalysisLayer" style="stroke: #A80036; stroke-width: 1.0;"/><polygon fill="#A80036" points="217.5,692.71,221.5,683.71,217.5,687.71,213.5,683.71,217.5,692.71" style="stroke: #A80036; stroke-width: 1.0;"/><polygon fill="#A80036" points="217.5,608.01,213.5,617.01,217.5,613.01,221.5,617.01,217.5,608.01" style="stroke: #A80036; stroke-width: 1.0;"/></g></svg>