<?xml version="1.0" encoding="UTF-8" standalone="no"?><svg xmlns="http://www.w3.org/2000/svg" xmlns:xlink="http://www.w3.org/1999/xlink" contentScriptType="application/ecmascript" contentStyleType="text/css" height="366px" preserveAspectRatio="none" style="width:617px;height:366px;" version="1.1" viewBox="0 0 617 366" width="617px" zoomAndPan="magnify"><defs><filter height="300%" id="fhtsqdfp2mvt6" width="300%" x="-1" y="-1"><feGaussianBlur result="blurOut" stdDeviation="2.0"/><feColorMatrix in="blurOut" result="blurOut2" type="matrix" values="0 0 0 0 0 0 0 0 0 0 0 0 0 0 0 0 0 0 .4 0"/><feOffset dx="4.0" dy="4.0" in="blurOut2" result="blurOut3"/><feBlend in="SourceGraphic" in2="blurOut3" mode="normal"/></filter></defs><g><!--MD5=[5f7287b6f0223c1293d0daa38ecfb448]
entity Data Sources--><rect fill="#FEFECE" filter="url(#fhtsqdfp2mvt6)" height="36.2969" style="stroke: #A80036; stroke-width: 1.5;" width="113" x="43" y="33"/><rect fill="#FEFECE" height="5" style="stroke: #A80036; stroke-width: 1.5;" width="10" x="38" y="38"/><rect fill="#FEFECE" height="5" style="stroke: #A80036; stroke-width: 1.5;" width="10" x="38" y="59.2969"/><text fill="#000000" font-family="sans-serif" font-size="14" lengthAdjust="spacingAndGlyphs" textLength="93" x="53" y="55.9951">Data Sources</text><path d="M191.5,8 L191.5,47 L156.15,51 L191.5,55 L191.5,93.6641 A0,0 0 0 0 191.5,93.6641 L605.5,93.6641 A0,0 0 0 0 605.5,93.6641 L605.5,18 L595.5,8 L191.5,8 A0,0 0 0 0 191.5,8 " fill="#FBFB77" filter="url(#fhtsqdfp2mvt6)" style="stroke: #A80036; stroke-width: 1.0;"/><path d="M595.5,8 L595.5,18 L605.5,18 L595.5,8 " fill="#FBFB77" style="stroke: #A80036; stroke-width: 1.0;"/><text fill="#000000" font-family="sans-serif" font-size="13" lengthAdjust="spacingAndGlyphs" textLength="393" x="197.5" y="25.0669">Internal Applications (Operational System Databases, Logs...)</text><text fill="#000000" font-family="sans-serif" font-size="13" lengthAdjust="spacingAndGlyphs" textLength="138" x="197.5" y="40.1997">Business Applications</text><text fill="#000000" font-family="sans-serif" font-size="13" lengthAdjust="spacingAndGlyphs" textLength="201" x="197.5" y="55.3325">SaaS Applications (ERP, CRM...)</text><text fill="#000000" font-family="sans-serif" font-size="13" lengthAdjust="spacingAndGlyphs" textLength="74" x="197.5" y="70.4653">Documents</text><text fill="#000000" font-family="sans-serif" font-size="13" lengthAdjust="spacingAndGlyphs" textLength="371" x="197.5" y="85.5981">External Data (Appsflyer, Google Ads, Amplitude, Braze...)</text><!--MD5=[e2bad13a8ea82dd2f491c5eea91baa86]
entity Data Warehouse--><rect fill="#FEFECE" filter="url(#fhtsqdfp2mvt6)" height="36.2969" style="stroke: #A80036; stroke-width: 1.5;" width="135" x="32" y="163.5"/><rect fill="#FEFECE" height="5" style="stroke: #A80036; stroke-width: 1.5;" width="10" x="27" y="168.5"/><rect fill="#FEFECE" height="5" style="stroke: #A80036; stroke-width: 1.5;" width="10" x="27" y="189.7969"/><text fill="#000000" font-family="sans-serif" font-size="14" lengthAdjust="spacingAndGlyphs" textLength="115" x="42" y="186.4951">Data Warehouse</text><path d="M202,154 L202,177.5 L167.09,181.5 L202,185.5 L202,209.3984 A0,0 0 0 0 202,209.3984 L419,209.3984 A0,0 0 0 0 419,209.3984 L419,164 L409,154 L202,154 A0,0 0 0 0 202,154 " fill="#FBFB77" filter="url(#fhtsqdfp2mvt6)" style="stroke: #A80036; stroke-width: 1.0;"/><path d="M409,154 L409,164 L419,164 L409,154 " fill="#FBFB77" style="stroke: #A80036; stroke-width: 1.0;"/><text fill="#000000" font-family="sans-serif" font-size="13" lengthAdjust="spacingAndGlyphs" textLength="60" x="208" y="171.0669">Raw Data</text><text fill="#000000" font-family="sans-serif" font-size="13" lengthAdjust="spacingAndGlyphs" textLength="196" x="208" y="186.1997">Summarized/Aggregated Data</text><text fill="#000000" font-family="sans-serif" font-size="13" lengthAdjust="spacingAndGlyphs" textLength="61" x="208" y="201.3325">Metadata</text><!--MD5=[137f161b7fffe92c453b3c19df1d9954]
entity End Users Access Tools--><rect fill="#FEFECE" filter="url(#fhtsqdfp2mvt6)" height="36.2969" style="stroke: #A80036; stroke-width: 1.5;" width="187" x="6" y="294"/><rect fill="#FEFECE" height="5" style="stroke: #A80036; stroke-width: 1.5;" width="10" x="1" y="299"/><rect fill="#FEFECE" height="5" style="stroke: #A80036; stroke-width: 1.5;" width="10" x="1" y="320.2969"/><text fill="#000000" font-family="sans-serif" font-size="14" lengthAdjust="spacingAndGlyphs" textLength="167" x="16" y="316.9951">End Users Access Tools</text><path d="M228,269 L228,308 L193.13,312 L228,316 L228,354.6641 A0,0 0 0 0 228,354.6641 L347,354.6641 A0,0 0 0 0 347,354.6641 L347,279 L337,269 L228,269 A0,0 0 0 0 228,269 " fill="#FBFB77" filter="url(#fhtsqdfp2mvt6)" style="stroke: #A80036; stroke-width: 1.0;"/><path d="M337,269 L337,279 L347,279 L337,269 " fill="#FBFB77" style="stroke: #A80036; stroke-width: 1.0;"/><text fill="#000000" font-family="sans-serif" font-size="13" lengthAdjust="spacingAndGlyphs" textLength="77" x="234" y="286.0669">BI Platforms</text><text fill="#000000" font-family="sans-serif" font-size="13" lengthAdjust="spacingAndGlyphs" textLength="98" x="234" y="301.1997">Reporting Tools</text><text fill="#000000" font-family="sans-serif" font-size="13" lengthAdjust="spacingAndGlyphs" textLength="34" x="234" y="316.3325">OLAP</text><text fill="#000000" font-family="sans-serif" font-size="13" lengthAdjust="spacingAndGlyphs" textLength="77" x="234" y="331.4653">Dashboards</text><text fill="#000000" font-family="sans-serif" font-size="13" lengthAdjust="spacingAndGlyphs" textLength="76" x="234" y="346.5981">Data Mining</text><!--MD5=[932e88eade84b676eb4d88965b537f26]
link Data Sources to Data Warehouse--><path d="M99.5,69.06 C99.5,92.01 99.5,132.85 99.5,158.2 " fill="none" id="Data Sources-&gt;Data Warehouse" style="stroke: #A80036; stroke-width: 1.0;"/><polygon fill="#A80036" points="99.5,163.37,103.5,154.37,99.5,158.37,95.5,154.37,99.5,163.37" style="stroke: #A80036; stroke-width: 1.0;"/><!--MD5=[9a62d02c641f66977b81811c42de4f10]
link Data Warehouse to End Users Access Tools--><path d="M99.5,199.56 C99.5,222.51 99.5,263.35 99.5,288.7 " fill="none" id="Data Warehouse-&gt;End Users Access Tools" style="stroke: #A80036; stroke-width: 1.0;"/><polygon fill="#A80036" points="99.5,293.87,103.5,284.87,99.5,288.87,95.5,284.87,99.5,293.87" style="stroke: #A80036; stroke-width: 1.0;"/></g></svg>