<?xml version="1.0" encoding="UTF-8" standalone="no"?><svg xmlns="http://www.w3.org/2000/svg" xmlns:xlink="http://www.w3.org/1999/xlink" contentScriptType="application/ecmascript" contentStyleType="text/css" height="292px" preserveAspectRatio="none" style="width:799px;height:292px;" version="1.1" viewBox="0 0 799 292" width="799px" zoomAndPan="magnify"><defs><filter height="300%" id="fv39c2wxjmvdd" width="300%" x="-1" y="-1"><feGaussianBlur result="blurOut" stdDeviation="2.0"/><feColorMatrix in="blurOut" result="blurOut2" type="matrix" values="0 0 0 0 0 0 0 0 0 0 0 0 0 0 0 0 0 0 .4 0"/><feOffset dx="4.0" dy="4.0" in="blurOut2" result="blurOut3"/><feBlend in="SourceGraphic" in2="blurOut3" mode="normal"/></filter></defs><g><rect fill="#FEFECE" filter="url(#fv39c2wxjmvdd)" height="36.2969" rx="12.5" ry="12.5" style="stroke: #A80036; stroke-width: 1.5;" width="57" x="361" y="132.5938"/><text fill="#000000" font-family="sans-serif" font-size="14" lengthAdjust="spacingAndGlyphs" textLength="37" x="371" y="155.5889">Zone</text><rect fill="#FEFECE" filter="url(#fv39c2wxjmvdd)" height="36.2969" rx="12.5" ry="12.5" style="stroke: #A80036; stroke-width: 1.5;" width="60" x="468" y="76.2969"/><text fill="#000000" font-family="sans-serif" font-size="14" lengthAdjust="spacingAndGlyphs" textLength="40" x="478" y="99.292">Name</text><path d="M418,150.7422 L428,150.7422 C443,150.7422 443,94.4453 458,94.4453 L468,94.4453 " fill="none" style="stroke: #A80036; stroke-width: 1.0;"/><rect fill="#FEFECE" filter="url(#fv39c2wxjmvdd)" height="36.2969" rx="12.5" ry="12.5" style="stroke: #A80036; stroke-width: 1.5;" width="91" x="468" y="132.5938"/><text fill="#000000" font-family="sans-serif" font-size="14" lengthAdjust="spacingAndGlyphs" textLength="71" x="478" y="155.5889">Properties</text><rect fill="#FEFECE" filter="url(#fv39c2wxjmvdd)" height="36.2969" rx="12.5" ry="12.5" style="stroke: #A80036; stroke-width: 1.5;" width="88" x="609" y="20"/><text fill="#000000" font-family="sans-serif" font-size="14" lengthAdjust="spacingAndGlyphs" textLength="68" x="619" y="42.9951">Governed</text><path d="M559,150.7422 L569,150.7422 C584,150.7422 584,38.1484 599,38.1484 L609,38.1484 " fill="none" style="stroke: #A80036; stroke-width: 1.0;"/><rect fill="#FEFECE" filter="url(#fv39c2wxjmvdd)" height="36.2969" rx="12.5" ry="12.5" style="stroke: #A80036; stroke-width: 1.5;" width="89" x="609" y="76.2969"/><text fill="#000000" font-family="sans-serif" font-size="14" lengthAdjust="spacingAndGlyphs" textLength="69" x="619" y="99.292">Historized</text><path d="M559,150.7422 L569,150.7422 C584,150.7422 584,94.4453 599,94.4453 L609,94.4453 " fill="none" style="stroke: #A80036; stroke-width: 1.0;"/><rect fill="#FEFECE" filter="url(#fv39c2wxjmvdd)" height="36.2969" rx="12.5" ry="12.5" style="stroke: #A80036; stroke-width: 1.5;" width="90" x="609" y="132.5938"/><text fill="#000000" font-family="sans-serif" font-size="14" lengthAdjust="spacingAndGlyphs" textLength="70" x="619" y="155.5889">Persistent</text><path d="M559,150.7422 L569,150.7422 C584,150.7422 584,150.7422 599,150.7422 L609,150.7422 " fill="none" style="stroke: #A80036; stroke-width: 1.0;"/><rect fill="#FEFECE" filter="url(#fv39c2wxjmvdd)" height="36.2969" rx="12.5" ry="12.5" style="stroke: #A80036; stroke-width: 1.5;" width="88" x="609" y="188.8906"/><text fill="#000000" font-family="sans-serif" font-size="14" lengthAdjust="spacingAndGlyphs" textLength="68" x="619" y="211.8857">Protected</text><path d="M559,150.7422 L569,150.7422 C584,150.7422 584,207.0391 599,207.0391 L609,207.0391 " fill="none" style="stroke: #A80036; stroke-width: 1.0;"/><rect fill="#FEFECE" filter="url(#fv39c2wxjmvdd)" height="36.2969" rx="12.5" ry="12.5" style="stroke: #A80036; stroke-width: 1.5;" width="179" x="609" y="245.1875"/><text fill="#000000" font-family="sans-serif" font-size="14" lengthAdjust="spacingAndGlyphs" textLength="159" x="619" y="268.1826">Use Case Independent</text><path d="M559,150.7422 L569,150.7422 C584,150.7422 584,263.3359 599,263.3359 L609,263.3359 " fill="none" style="stroke: #A80036; stroke-width: 1.0;"/><path d="M418,150.7422 L428,150.7422 C443,150.7422 443,150.7422 458,150.7422 L468,150.7422 " fill="none" style="stroke: #A80036; stroke-width: 1.0;"/><rect fill="#FEFECE" filter="url(#fv39c2wxjmvdd)" height="36.2969" rx="12.5" ry="12.5" style="stroke: #A80036; stroke-width: 1.5;" width="156" x="155" y="76.2969"/><text fill="#000000" font-family="sans-serif" font-size="14" lengthAdjust="spacingAndGlyphs" textLength="136" x="165" y="99.292">Modelling Approach</text><path d="M361,150.7422 L351,150.7422 C336,150.7422 336,94.4453 321,94.4453 L311,94.4453 " fill="none" style="stroke: #A80036; stroke-width: 1.0;"/><rect fill="#FEFECE" filter="url(#fv39c2wxjmvdd)" height="36.2969" rx="12.5" ry="12.5" style="stroke: #A80036; stroke-width: 1.5;" width="158" x="153" y="132.5938"/><text fill="#000000" font-family="sans-serif" font-size="14" lengthAdjust="spacingAndGlyphs" textLength="138" x="163" y="155.5889">Data Characteristics</text><rect fill="#FEFECE" filter="url(#fv39c2wxjmvdd)" height="36.2969" rx="12.5" ry="12.5" style="stroke: #A80036; stroke-width: 1.5;" width="93" x="10" y="48.1484"/><text fill="#000000" font-family="sans-serif" font-size="14" lengthAdjust="spacingAndGlyphs" textLength="73" x="20" y="71.1436">Granularity</text><path d="M153,150.7422 L143,150.7422 C128,150.7422 128,66.2969 113,66.2969 L103,66.2969 " fill="none" style="stroke: #A80036; stroke-width: 1.0;"/><rect fill="#FEFECE" filter="url(#fv39c2wxjmvdd)" height="36.2969" rx="12.5" ry="12.5" style="stroke: #A80036; stroke-width: 1.5;" width="76" x="27" y="104.4453"/><text fill="#000000" font-family="sans-serif" font-size="14" lengthAdjust="spacingAndGlyphs" textLength="56" x="37" y="127.4404">Schema</text><path d="M153,150.7422 L143,150.7422 C128,150.7422 128,122.5938 113,122.5938 L103,122.5938 " fill="none" style="stroke: #A80036; stroke-width: 1.0;"/><rect fill="#FEFECE" filter="url(#fv39c2wxjmvdd)" height="36.2969" rx="12.5" ry="12.5" style="stroke: #A80036; stroke-width: 1.5;" width="65" x="38" y="160.7422"/><text fill="#000000" font-family="sans-serif" font-size="14" lengthAdjust="spacingAndGlyphs" textLength="45" x="48" y="183.7373">Syntax</text><path d="M153,150.7422 L143,150.7422 C128,150.7422 128,178.8906 113,178.8906 L103,178.8906 " fill="none" style="stroke: #A80036; stroke-width: 1.0;"/><rect fill="#FEFECE" filter="url(#fv39c2wxjmvdd)" height="36.2969" rx="12.5" ry="12.5" style="stroke: #A80036; stroke-width: 1.5;" width="92" x="11" y="217.0391"/><text fill="#000000" font-family="sans-serif" font-size="14" lengthAdjust="spacingAndGlyphs" textLength="72" x="21" y="240.0342">Semantics</text><path d="M153,150.7422 L143,150.7422 C128,150.7422 128,235.1875 113,235.1875 L103,235.1875 " fill="none" style="stroke: #A80036; stroke-width: 1.0;"/><path d="M361,150.7422 L351,150.7422 C336,150.7422 336,150.7422 321,150.7422 L311,150.7422 " fill="none" style="stroke: #A80036; stroke-width: 1.0;"/><rect fill="#FEFECE" filter="url(#fv39c2wxjmvdd)" height="36.2969" rx="12.5" ry="12.5" style="stroke: #A80036; stroke-width: 1.5;" width="107" x="204" y="188.8906"/><text fill="#000000" font-family="sans-serif" font-size="14" lengthAdjust="spacingAndGlyphs" textLength="87" x="214" y="211.8857">User Groups</text><path d="M361,150.7422 L351,150.7422 C336,150.7422 336,207.0391 321,207.0391 L311,207.0391 " fill="none" style="stroke: #A80036; stroke-width: 1.0;"/></g></svg>