<?xml version="1.0" encoding="UTF-8" standalone="no"?><svg xmlns="http://www.w3.org/2000/svg" xmlns:xlink="http://www.w3.org/1999/xlink" contentScriptType="application/ecmascript" contentStyleType="text/css" height="870px" preserveAspectRatio="none" style="width:603px;height:870px;" version="1.1" viewBox="0 0 603 870" width="603px" zoomAndPan="magnify"><defs><filter height="300%" id="fe36a8y5qbtb7" width="300%" x="-1" y="-1"><feGaussianBlur result="blurOut" stdDeviation="2.0"/><feColorMatrix in="blurOut" result="blurOut2" type="matrix" values="0 0 0 0 0 0 0 0 0 0 0 0 0 0 0 0 0 0 .4 0"/><feOffset dx="4.0" dy="4.0" in="blurOut2" result="blurOut3"/><feBlend in="SourceGraphic" in2="blurOut3" mode="normal"/></filter></defs><g><!--MD5=[05244f33567796f9566f346f635214bb]
entity DataSources--><rect fill="#FEFECE" filter="url(#fe36a8y5qbtb7)" height="36.2969" style="stroke: #A80036; stroke-width: 1.5;" width="113" x="16" y="17.5"/><rect fill="#FEFECE" height="5" style="stroke: #A80036; stroke-width: 1.5;" width="10" x="11" y="22.5"/><rect fill="#FEFECE" height="5" style="stroke: #A80036; stroke-width: 1.5;" width="10" x="11" y="43.7969"/><text fill="#000000" font-family="sans-serif" font-size="14" lengthAdjust="spacingAndGlyphs" textLength="93" x="26" y="40.4951">Data Sources</text><path d="M164.5,8 L164.5,31.5 L129.25,35.5 L164.5,39.5 L164.5,63.3984 A0,0 0 0 0 164.5,63.3984 L272.5,63.3984 A0,0 0 0 0 272.5,63.3984 L272.5,18 L262.5,8 L164.5,8 A0,0 0 0 0 164.5,8 " fill="#FBFB77" filter="url(#fe36a8y5qbtb7)" style="stroke: #A80036; stroke-width: 1.0;"/><path d="M262.5,8 L262.5,18 L272.5,18 L262.5,8 " fill="#FBFB77" style="stroke: #A80036; stroke-width: 1.0;"/><text fill="#000000" font-family="sans-serif" font-size="13" lengthAdjust="spacingAndGlyphs" textLength="65" x="170.5" y="25.0669">Data Lake</text><text fill="#000000" font-family="sans-serif" font-size="13" lengthAdjust="spacingAndGlyphs" textLength="83" x="170.5" y="40.1997">Internal Data</text><text fill="#000000" font-family="sans-serif" font-size="13" lengthAdjust="spacingAndGlyphs" textLength="87" x="170.5" y="55.3325">External Data</text><!--MD5=[bf8b3f0b9d01335381ca128df0cda171]
entity IDataWarehouseETLs--><ellipse cx="72.5" cy="150.5" fill="#FEFECE" filter="url(#fe36a8y5qbtb7)" rx="8" ry="8" style="stroke: #A80036; stroke-width: 2.0;"/><text fill="#000000" font-family="sans-serif" font-size="14" lengthAdjust="spacingAndGlyphs" textLength="63" x="41" y="180.4951">ETL tools</text><path d="M116,123 L116,146.5 L81.72,150.5 L116,154.5 L116,178.3984 A0,0 0 0 0 116,178.3984 L265,178.3984 A0,0 0 0 0 265,178.3984 L265,133 L255,123 L116,123 A0,0 0 0 0 116,123 " fill="#FBFB77" filter="url(#fe36a8y5qbtb7)" style="stroke: #A80036; stroke-width: 1.0;"/><path d="M255,123 L255,133 L265,133 L255,123 " fill="#FBFB77" style="stroke: #A80036; stroke-width: 1.0;"/><text fill="#000000" font-family="sans-serif" font-size="13" lengthAdjust="spacingAndGlyphs" textLength="128" x="122" y="140.0669">Data micro-services</text><text fill="#000000" font-family="sans-serif" font-size="13" lengthAdjust="spacingAndGlyphs" textLength="41" x="122" y="155.1997">Airflow</text><text fill="#000000" font-family="sans-serif" font-size="13" lengthAdjust="spacingAndGlyphs" textLength="51" x="122" y="170.3325">Fivetran</text><!--MD5=[b8b6bd11b844cbabd3aae9564ec7f6c8]
entity DataStaging--><path d="M18.5,248 C18.5,238 72.5,238 72.5,238 C72.5,238 126.5,238 126.5,248 L126.5,273.2969 C126.5,283.2969 72.5,283.2969 72.5,283.2969 C72.5,283.2969 18.5,283.2969 18.5,273.2969 L18.5,248 " fill="#FEFECE" filter="url(#fe36a8y5qbtb7)" style="stroke: #000000; stroke-width: 1.5;"/><path d="M18.5,248 C18.5,258 72.5,258 72.5,258 C72.5,258 126.5,258 126.5,248 " fill="none" style="stroke: #000000; stroke-width: 1.5;"/><text fill="#000000" font-family="sans-serif" font-size="14" lengthAdjust="spacingAndGlyphs" textLength="88" x="28.5" y="274.9951">Data Staging</text><path d="M161.5,248 L161.5,256.5 L126.59,260.5 L161.5,264.5 L161.5,273.1328 A0,0 0 0 0 161.5,273.1328 L305.5,273.1328 A0,0 0 0 0 305.5,273.1328 L305.5,258 L295.5,248 L161.5,248 A0,0 0 0 0 161.5,248 " fill="#FBFB77" filter="url(#fe36a8y5qbtb7)" style="stroke: #A80036; stroke-width: 1.0;"/><path d="M295.5,248 L295.5,258 L305.5,258 L295.5,248 " fill="#FBFB77" style="stroke: #A80036; stroke-width: 1.0;"/><text fill="#000000" font-family="sans-serif" font-size="13" lengthAdjust="spacingAndGlyphs" textLength="123" x="167.5" y="265.0669">Data Staging Layer</text><!--MD5=[c7a04893e3799ff8a497750bcf80a625]
entity ReconciledData--><path d="M6,353 C6,343 72.5,343 72.5,343 C72.5,343 139,343 139,353 L139,378.2969 C139,388.2969 72.5,388.2969 72.5,388.2969 C72.5,388.2969 6,388.2969 6,378.2969 L6,353 " fill="#FEFECE" filter="url(#fe36a8y5qbtb7)" style="stroke: #000000; stroke-width: 1.5;"/><path d="M6,353 C6,363 72.5,363 72.5,363 C72.5,363 139,363 139,353 " fill="none" style="stroke: #000000; stroke-width: 1.5;"/><text fill="#000000" font-family="sans-serif" font-size="14" lengthAdjust="spacingAndGlyphs" textLength="113" x="16" y="379.9951">Reconciled Data</text><path d="M174,353 L174,361.5 L139.34,365.5 L174,369.5 L174,378.1328 A0,0 0 0 0 174,378.1328 L337,378.1328 A0,0 0 0 0 337,378.1328 L337,363 L327,353 L174,353 A0,0 0 0 0 174,353 " fill="#FBFB77" filter="url(#fe36a8y5qbtb7)" style="stroke: #A80036; stroke-width: 1.0;"/><path d="M327,353 L327,363 L337,363 L327,353 " fill="#FBFB77" style="stroke: #A80036; stroke-width: 1.0;"/><text fill="#000000" font-family="sans-serif" font-size="13" lengthAdjust="spacingAndGlyphs" textLength="142" x="180" y="370.0669">Reconciled Data Layer</text><!--MD5=[2083a564367558674a493bc10de5982a]
entity DataWarehouse--><path d="M176,458 C176,448 243.5,448 243.5,448 C243.5,448 311,448 311,458 L311,483.2969 C311,493.2969 243.5,493.2969 243.5,493.2969 C243.5,493.2969 176,493.2969 176,483.2969 L176,458 " fill="#FEFECE" filter="url(#fe36a8y5qbtb7)" style="stroke: #000000; stroke-width: 1.5;"/><path d="M176,458 C176,468 243.5,468 243.5,468 C243.5,468 311,468 311,458 " fill="none" style="stroke: #000000; stroke-width: 1.5;"/><text fill="#000000" font-family="sans-serif" font-size="14" lengthAdjust="spacingAndGlyphs" textLength="115" x="186" y="484.9951">Data Warehouse</text><path d="M346.5,458 L346.5,466.5 L311.07,470.5 L346.5,474.5 L346.5,483.1328 A0,0 0 0 0 346.5,483.1328 L512.5,483.1328 A0,0 0 0 0 512.5,483.1328 L512.5,468 L502.5,458 L346.5,458 A0,0 0 0 0 346.5,458 " fill="#FBFB77" filter="url(#fe36a8y5qbtb7)" style="stroke: #A80036; stroke-width: 1.0;"/><path d="M502.5,458 L502.5,468 L512.5,468 L502.5,458 " fill="#FBFB77" style="stroke: #A80036; stroke-width: 1.0;"/><text fill="#000000" font-family="sans-serif" font-size="13" lengthAdjust="spacingAndGlyphs" textLength="145" x="352.5" y="475.0669">Data Warehouse Layer</text><!--MD5=[56aa73e62b8809ef6c50eb50ecd20c23]
entity Metadata--><path d="M372.5,353 C372.5,343 414.5,343 414.5,343 C414.5,343 456.5,343 456.5,353 L456.5,378.2969 C456.5,388.2969 414.5,388.2969 414.5,388.2969 C414.5,388.2969 372.5,388.2969 372.5,378.2969 L372.5,353 " fill="#FEFECE" filter="url(#fe36a8y5qbtb7)" style="stroke: #000000; stroke-width: 1.5;"/><path d="M372.5,353 C372.5,363 414.5,363 414.5,363 C414.5,363 456.5,363 456.5,353 " fill="none" style="stroke: #000000; stroke-width: 1.5;"/><text fill="#000000" font-family="sans-serif" font-size="14" lengthAdjust="spacingAndGlyphs" textLength="64" x="382.5" y="379.9951">Metadata</text><!--MD5=[c21c98def3ce79b8824e716abb8b53c1]
entity MiddleTier--><rect fill="#FEFECE" filter="url(#fe36a8y5qbtb7)" height="36.2969" style="stroke: #A80036; stroke-width: 1.5;" width="175" x="314" y="562.5"/><rect fill="#FEFECE" height="5" style="stroke: #A80036; stroke-width: 1.5;" width="10" x="309" y="567.5"/><rect fill="#FEFECE" height="5" style="stroke: #A80036; stroke-width: 1.5;" width="10" x="309" y="588.7969"/><text fill="#000000" font-family="sans-serif" font-size="14" lengthAdjust="spacingAndGlyphs" textLength="155" x="324" y="585.4951">Middle/Application Tier</text><!--MD5=[812ada8f582cba06f0f9705a48751469]
entity IDataMartsETLs--><ellipse cx="86.5" cy="580.5" fill="#FEFECE" filter="url(#fe36a8y5qbtb7)" rx="8" ry="8" style="stroke: #A80036; stroke-width: 2.0;"/><text fill="#000000" font-family="sans-serif" font-size="14" lengthAdjust="spacingAndGlyphs" textLength="63" x="55" y="610.4951">ETL tools</text><path d="M130,553 L130,576.5 L95.72,580.5 L130,584.5 L130,608.3984 A0,0 0 0 0 130,608.3984 L279,608.3984 A0,0 0 0 0 279,608.3984 L279,563 L269,553 L130,553 A0,0 0 0 0 130,553 " fill="#FBFB77" filter="url(#fe36a8y5qbtb7)" style="stroke: #A80036; stroke-width: 1.0;"/><path d="M269,553 L269,563 L279,563 L269,553 " fill="#FBFB77" style="stroke: #A80036; stroke-width: 1.0;"/><text fill="#000000" font-family="sans-serif" font-size="13" lengthAdjust="spacingAndGlyphs" textLength="128" x="136" y="570.0669">Data micro-services</text><text fill="#000000" font-family="sans-serif" font-size="13" lengthAdjust="spacingAndGlyphs" textLength="41" x="136" y="585.1997">Airflow</text><text fill="#000000" font-family="sans-serif" font-size="13" lengthAdjust="spacingAndGlyphs" textLength="21" x="136" y="600.3325">dbt</text><!--MD5=[035db8c501043c0e24e8bebf71acc011]
entity DataMarts--><path d="M254.5,678 C254.5,668 301.5,668 301.5,668 C301.5,668 348.5,668 348.5,678 L348.5,703.2969 C348.5,713.2969 301.5,713.2969 301.5,713.2969 C301.5,713.2969 254.5,713.2969 254.5,703.2969 L254.5,678 " fill="#FEFECE" filter="url(#fe36a8y5qbtb7)" style="stroke: #000000; stroke-width: 1.5;"/><path d="M254.5,678 C254.5,688 301.5,688 301.5,688 C301.5,688 348.5,688 348.5,678 " fill="none" style="stroke: #000000; stroke-width: 1.5;"/><text fill="#000000" font-family="sans-serif" font-size="14" lengthAdjust="spacingAndGlyphs" textLength="74" x="264.5" y="704.9951">Data Marts</text><!--MD5=[c4800f5be070dbd164baf792609e8ac7]
entity AnalysisLayer--><rect fill="#FEFECE" filter="url(#fe36a8y5qbtb7)" height="36.2969" style="stroke: #A80036; stroke-width: 1.5;" width="170" x="266.5" y="798"/><rect fill="#FEFECE" height="5" style="stroke: #A80036; stroke-width: 1.5;" width="10" x="261.5" y="803"/><rect fill="#FEFECE" height="5" style="stroke: #A80036; stroke-width: 1.5;" width="10" x="261.5" y="824.2969"/><text fill="#000000" font-family="sans-serif" font-size="14" lengthAdjust="spacingAndGlyphs" textLength="150" x="276.5" y="820.9951">Top/Presentation Tier</text><path d="M472,773 L472,812 L436.58,816 L472,820 L472,858.6641 A0,0 0 0 0 472,858.6641 L591,858.6641 A0,0 0 0 0 591,858.6641 L591,783 L581,773 L472,773 A0,0 0 0 0 472,773 " fill="#FBFB77" filter="url(#fe36a8y5qbtb7)" style="stroke: #A80036; stroke-width: 1.0;"/><path d="M581,773 L581,783 L591,783 L581,773 " fill="#FBFB77" style="stroke: #A80036; stroke-width: 1.0;"/><text fill="#000000" font-family="sans-serif" font-size="13" lengthAdjust="spacingAndGlyphs" textLength="77" x="478" y="790.0669">BI Platforms</text><text fill="#000000" font-family="sans-serif" font-size="13" lengthAdjust="spacingAndGlyphs" textLength="98" x="478" y="805.1997">Reporting Tools</text><text fill="#000000" font-family="sans-serif" font-size="13" lengthAdjust="spacingAndGlyphs" textLength="34" x="478" y="820.3325">OLAP</text><text fill="#000000" font-family="sans-serif" font-size="13" lengthAdjust="spacingAndGlyphs" textLength="77" x="478" y="835.4653">Dashboards</text><text fill="#000000" font-family="sans-serif" font-size="13" lengthAdjust="spacingAndGlyphs" textLength="76" x="478" y="850.5981">Data Mining</text><!--MD5=[972e4988f041820763f3aa558d4229cd]
link DataSources to IDataWarehouseETLs--><path d="M72.5,53.66 C72.5,76.33 72.5,115.78 72.5,136.28 " fill="none" id="DataSources-&gt;IDataWarehouseETLs" style="stroke: #A80036; stroke-width: 1.0;"/><polygon fill="#A80036" points="72.5,141.29,76.5,132.29,72.5,136.29,68.5,132.29,72.5,141.29" style="stroke: #A80036; stroke-width: 1.0;"/><!--MD5=[84dcaafe9ef3922fd852293f4204ee1e]
link IDataWarehouseETLs to DataStaging--><path d="M72.5,159.62 C72.5,174.85 72.5,208.34 72.5,232.35 " fill="none" id="IDataWarehouseETLs-&gt;DataStaging" style="stroke: #A80036; stroke-width: 1.0;"/><polygon fill="#A80036" points="72.5,237.62,76.5,228.62,72.5,232.62,68.5,228.62,72.5,237.62" style="stroke: #A80036; stroke-width: 1.0;"/><!--MD5=[e1156b9740a86e5e8ff7a77883c056c2]
link DataStaging to ReconciledData--><path d="M72.5,283.34 C72.5,299.18 72.5,320.7 72.5,337.6 " fill="none" id="DataStaging-&gt;ReconciledData" style="stroke: #A80036; stroke-width: 1.0;"/><polygon fill="#A80036" points="72.5,342.69,76.5,333.69,72.5,337.69,68.5,333.69,72.5,342.69" style="stroke: #A80036; stroke-width: 1.0;"/><!--MD5=[10125f2430ee5a15dd74d670a93b2011]
link ReconciledData to DataWarehouse--><path d="M108.35,388.09 C136.05,404.78 174.39,427.88 203.17,445.21 " fill="none" id="ReconciledData-&gt;DataWarehouse" style="stroke: #A80036; stroke-width: 1.0;"/><polygon fill="#A80036" points="207.7,447.94,202.0603,439.8657,203.4188,445.357,197.9275,446.7156,207.7,447.94" style="stroke: #A80036; stroke-width: 1.0;"/><!--MD5=[2d798620e4d929677644387ebbe6e0ea]
link Metadata to DataWarehouse--><path d="M374.12,390.82 C346.8,407.28 310.86,428.93 283.6,445.35 " fill="none" id="Metadata-DataWarehouse" style="stroke: #A80036; stroke-width: 1.0;"/><polygon fill="#A80036" points="279.3,447.94,289.0725,446.7156,283.5812,445.357,284.9397,439.8657,279.3,447.94" style="stroke: #A80036; stroke-width: 1.0;"/><polygon fill="#A80036" points="378.65,388.09,368.8746,389.2905,374.3625,390.6625,372.9905,396.1504,378.65,388.09" style="stroke: #A80036; stroke-width: 1.0;"/><!--MD5=[31283596f70a7c379640b15d3ba69541]
link DataWarehouse to MiddleTier--><path d="M279.36,496.01 C307.28,515.1 345.56,541.26 371.78,559.18 " fill="none" id="DataWarehouse-MiddleTier" style="stroke: #A80036; stroke-width: 1.0;"/><polygon fill="#A80036" points="376.2,562.21,371.0164,553.8356,372.0686,559.3938,366.5104,560.4459,376.2,562.21" style="stroke: #A80036; stroke-width: 1.0;"/><polygon fill="#A80036" points="275.09,493.1,280.2538,501.4866,279.2148,495.926,284.7754,494.8869,275.09,493.1" style="stroke: #A80036; stroke-width: 1.0;"/><!--MD5=[da4bfb151ee99ccdb24fc8fdd6c04c01]
link DataWarehouse to IDataMartsETLs--><path d="M203.46,493.08 C176.64,508.32 141.13,530.05 112.5,553 C107.16,557.28 101.77,562.58 97.3,567.3 " fill="none" id="DataWarehouse-&gt;IDataMartsETLs" style="stroke: #A80036; stroke-width: 1.0;"/><polygon fill="#A80036" points="93.77,571.1,102.82,567.2145,97.1673,567.4315,96.9504,561.7788,93.77,571.1" style="stroke: #A80036; stroke-width: 1.0;"/><!--MD5=[f60f0a87dd265fc5518d5133b87992f2]
link IDataMartsETLs to DataMarts--><path d="M93.09,589.75 C97.98,595.45 105.06,602.9 112.5,608 C155.12,637.22 209.9,659.44 249.51,673.24 " fill="none" id="IDataMartsETLs-&gt;DataMarts" style="stroke: #A80036; stroke-width: 1.0;"/><polygon fill="#A80036" points="254.26,674.88,247.0531,668.1673,249.5325,673.2518,244.448,675.7312,254.26,674.88" style="stroke: #A80036; stroke-width: 1.0;"/><!--MD5=[3a16e7c4e8eea7f284e655ca07bf3619]
link MiddleTier to DataMarts--><path d="M381.63,602.96 C365.48,620.41 342.63,645.08 325.46,663.62 " fill="none" id="MiddleTier-DataMarts" style="stroke: #A80036; stroke-width: 1.0;"/><polygon fill="#A80036" points="321.67,667.72,330.72,663.8345,325.0673,664.0515,324.8504,658.3988,321.67,667.72" style="stroke: #A80036; stroke-width: 1.0;"/><polygon fill="#A80036" points="385.43,598.85,376.38,602.7355,382.0327,602.5185,382.2496,608.1712,385.43,598.85" style="stroke: #A80036; stroke-width: 1.0;"/><!--MD5=[10e77e0fba6c17e64ea35b249152f7eb]
link DataMarts to AnalysisLayer--><path d="M312.1,717.68 C321.14,740.02 334,771.77 342.54,792.86 " fill="none" id="DataMarts-AnalysisLayer" style="stroke: #A80036; stroke-width: 1.0;"/><polygon fill="#A80036" points="344.5,797.71,344.8193,787.8663,342.6185,793.0775,337.4073,790.8767,344.5,797.71" style="stroke: #A80036; stroke-width: 1.0;"/><polygon fill="#A80036" points="310.21,713.01,309.8647,722.8528,312.0792,717.6474,317.2846,719.862,310.21,713.01" style="stroke: #A80036; stroke-width: 1.0;"/><!--MD5=[c4f45b18330e2b03424a4e7f6250f24f]
link MiddleTier to AnalysisLayer--><path d="M396.73,603.76 C387.17,648.4 365.76,748.41 356.23,792.91 " fill="none" id="MiddleTier-AnalysisLayer" style="stroke: #A80036; stroke-width: 1.0;"/><polygon fill="#A80036" points="355.18,797.81,360.9706,789.8433,356.2237,792.9202,353.1469,788.1733,355.18,797.81" style="stroke: #A80036; stroke-width: 1.0;"/><polygon fill="#A80036" points="397.82,598.67,392.0071,606.6205,396.7626,603.5569,399.8262,608.3124,397.82,598.67" style="stroke: #A80036; stroke-width: 1.0;"/></g></svg>