<?xml version="1.0" encoding="UTF-8" standalone="no"?><svg xmlns="http://www.w3.org/2000/svg" xmlns:xlink="http://www.w3.org/1999/xlink" contentScriptType="application/ecmascript" contentStyleType="text/css" height="870px" preserveAspectRatio="none" style="width:603px;height:870px;" version="1.1" viewBox="0 0 603 870" width="603px" zoomAndPan="magnify"><defs><filter height="300%" id="fe36a8y5qbtb7" width="300%" x="-1" y="-1"><feGaussianBlur result="blurOut" stdDeviation="2.0"/><feColorMatrix in="blurOut" result="blurOut2" type="matrix" values="0 0 0 0 0 0 0 0 0 0 0 0 0 0 0 0 0 0 .4 0"/><feOffset dx="4.0" dy="4.0" in="blurOut2" result="blurOut3"/><feBlend in="SourceGraphic" in2="blurOut3" mode="normal"/></filter></defs><g><!--entity DataSources--><rect fill="#FEFECE" filter="url(#fe36a8y5qbtb7)" height="36.2969" style="stroke: #A80036; stroke-width: 1.5;" width="113" x="16" y="17.5"/><rect fill="#FEFECE" height="5" style="stroke: #A80036; stroke-width: 1.5;" width="10" x="11" y="22.5"/><rect fill="#FEFECE" height="5" style="stroke: #A80036; stroke-width: 1.5;" width="10" x="11" y="43.7969"/><text fill="#000000" font-family="sans-serif" font-size="14" lengthAdjust="spacingAndGlyphs" textLength="93" x="26" y="40.4951">Data Sources</text><path d="M164.5,8 L164.5,31.5 L129.2461,35.5 L164.5,39.5 L164.5,63.3984 A0,0 0 0 0 164.5,63.3984 L272.5,63.3984 A0,0 0 0 0 272.5,63.3984 L272.5,18 L262.5,8 L164.5,8 A0,0 0 0 0 164.5,8 " fill="#FBFB77" filter="url(#fe36a8y5qbtb7)" style="stroke: #A80036; stroke-width: 1.0;"/><path d="M262.5,8 L262.5,18 L272.5,18 L262.5,8 " fill="#FBFB77" style="stroke: #A80036; stroke-width: 1.0;"/><text fill="#000000" font-family="sans-serif" font-size="13" lengthAdjust="spacingAndGlyphs" textLength="65" x="170.5" y="25.0669">Data Lake</text><text fill="#000000" font-family="sans-serif" font-size="13" lengthAdjust="spacingAndGlyphs" textLength="83" x="170.5" y="40.1997">Internal Data</text><text fill="#000000" font-family="sans-serif" font-size="13" lengthAdjust="spacingAndGlyphs" textLength="87" x="170.5" y="55.3325">External Data</text><!--entity IDataWarehouseETLs--><ellipse cx="72.5" cy="150.5" fill="#FEFECE" filter="url(#fe36a8y5qbtb7)" rx="8" ry="8" style="stroke: #A80036; stroke-width: 2.0;"/><text fill="#000000" font-family="sans-serif" font-size="14" lengthAdjust="spacingAndGlyphs" textLength="63" x="41" y="180.4951">ETL tools</text><path d="M116,123 L116,146.5 L81.7188,150.5 L116,154.5 L116,178.3984 A0,0 0 0 0 116,178.3984 L265,178.3984 A0,0 0 0 0 265,178.3984 L265,133 L255,123 L116,123 A0,0 0 0 0 116,123 " fill="#FBFB77" filter="url(#fe36a8y5qbtb7)" style="stroke: #A80036; stroke-width: 1.0;"/><path d="M255,123 L255,133 L265,133 L255,123 " fill="#FBFB77" style="stroke: #A80036; stroke-width: 1.0;"/><text fill="#000000" font-family="sans-serif" font-size="13" lengthAdjust="spacingAndGlyphs" textLength="128" x="122" y="140.0669">Data micro-services</text><text fill="#000000" font-family="sans-serif" font-size="13" lengthAdjust="spacingAndGlyphs" textLength="41" x="122" y="155.1997">Airflow</text><text fill="#000000" font-family="sans-serif" font-size="13" lengthAdjust="spacingAndGlyphs" textLength="51" x="122" y="170.3325">Fivetran</text><!--entity DataStaging--><path d="M18.5,248 C18.5,238 72.5,238 72.5,238 C72.5,238 126.5,238 126.5,248 L126.5,273.2969 C126.5,283.2969 72.5,283.2969 72.5,283.2969 C72.5,283.2969 18.5,283.2969 18.5,273.2969 L18.5,248 " fill="#FEFECE" filter="url(#fe36a8y5qbtb7)" style="stroke: #000000; stroke-width: 1.5;"/><path d="M18.5,248 C18.5,258 72.5,258 72.5,258 C72.5,258 126.5,258 126.5,248 " fill="none" style="stroke: #000000; stroke-width: 1.5;"/><text fill="#000000" font-family="sans-serif" font-size="14" lengthAdjust="spacingAndGlyphs" textLength="88" x="28.5" y="274.9951">Data Staging</text><path d="M161.5,248 L161.5,256.5 L126.5859,260.5 L161.5,264.5 L161.5,273.1328 A0,0 0 0 0 161.5,273.1328 L305.5,273.1328 A0,0 0 0 0 305.5,273.1328 L305.5,258 L295.5,248 L161.5,248 A0,0 0 0 0 161.5,248 " fill="#FBFB77" filter="url(#fe36a8y5qbtb7)" style="stroke: #A80036; stroke-width: 1.0;"/><path d="M295.5,248 L295.5,258 L305.5,258 L295.5,248 " fill="#FBFB77" style="stroke: #A80036; stroke-width: 1.0;"/><text fill="#000000" font-family="sans-serif" font-size="13" lengthAdjust="spacingAndGlyphs" textLength="123" x="167.5" y="265.0669">Data Staging Layer</text><!--entity ReconciledData--><path d="M6,353 C6,343 72.5,343 72.5,343 C72.5,343 139,343 139,353 L139,378.2969 C139,388.2969 72.5,388.2969 72.5,388.2969 C72.5,388.2969 6,388.2969 6,378.2969 L6,353 " fill="#FEFECE" filter="url(#fe36a8y5qbtb7)" style="stroke: #000000; stroke-width: 1.5;"/><path d="M6,353 C6,363 72.5,363 72.5,363 C72.5,363 139,363 139,353 " fill="none" style="stroke: #000000; stroke-width: 1.5;"/><text fill="#000000" font-family="sans-serif" font-size="14" lengthAdjust="spacingAndGlyphs" textLength="113" x="16" y="379.9951">Reconciled Data</text><path d="M174,353 L174,361.5 L139.3379,365.5 L174,369.5 L174,378.1328 A0,0 0 0 0 174,378.1328 L337,378.1328 A0,0 0 0 0 337,378.1328 L337,363 L327,353 L174,353 A0,0 0 0 0 174,353 " fill="#FBFB77" filter="url(#fe36a8y5qbtb7)" style="stroke: #A80036; stroke-width: 1.0;"/><path d="M327,353 L327,363 L337,363 L327,353 " fill="#FBFB77" style="stroke: #A80036; stroke-width: 1.0;"/><text fill="#000000" font-family="sans-serif" font-size="13" lengthAdjust="spacingAndGlyphs" textLength="142" x="180" y="370.0669">Reconciled Data Layer</text><!--entity DataWarehouse--><path d="M176,458 C176,448 243.5,448 243.5,448 C243.5,448 311,448 311,458 L311,483.2969 C311,493.2969 243.5,493.2969 243.5,493.2969 C243.5,493.2969 176,493.2969 176,483.2969 L176,458 " fill="#FEFECE" filter="url(#fe36a8y5qbtb7)" style="stroke: #000000; stroke-width: 1.5;"/><path d="M176,458 C176,468 243.5,468 243.5,468 C243.5,468 311,468 311,458 " fill="none" style="stroke: #000000; stroke-width: 1.5;"/><text fill="#000000" font-family="sans-serif" font-size="14" lengthAdjust="spacingAndGlyphs" textLength="115" x="186" y="484.9951">Data Warehouse</text><path d="M346.5,458 L346.5,466.5 L311.0703,470.5 L346.5,474.5 L346.5,483.1328 A0,0 0 0 0 346.5,483.1328 L512.5,483.1328 A0,0 0 0 0 512.5,483.1328 L512.5,468 L502.5,458 L346.5,458 A0,0 0 0 0 346.5,458 " fill="#FBFB77" filter="url(#fe36a8y5qbtb7)" style="stroke: #A80036; stroke-width: 1.0;"/><path d="M502.5,458 L502.5,468 L512.5,468 L502.5,458 " fill="#FBFB77" style="stroke: #A80036; stroke-width: 1.0;"/><text fill="#000000" font-family="sans-serif" font-size="13" lengthAdjust="spacingAndGlyphs" textLength="145" x="352.5" y="475.0669">Data Warehouse Layer</text><!--entity Metadata--><path d="M372.5,353 C372.5,343 414.5,343 414.5,343 C414.5,343 456.5,343 456.5,353 L456.5,378.2969 C456.5,388.2969 414.5,388.2969 414.5,388.2969 C414.5,388.2969 372.5,388.2969 372.5,378.2969 L372.5,353 " fill="#FEFECE" filter="url(#fe36a8y5qbtb7)" style="stroke: #000000; stroke-width: 1.5;"/><path d="M372.5,353 C372.5,363 414.5,363 414.5,363 C414.5,363 456.5,363 456.5,353 " fill="none" style="stroke: #000000; stroke-width: 1.5;"/><text fill="#000000" font-family="sans-serif" font-size="14" lengthAdjust="spacingAndGlyphs" textLength="64" x="382.5" y="379.9951">Metadata</text><!--entity MiddleTier--><rect fill="#FEFECE" filter="url(#fe36a8y5qbtb7)" height="36.2969" style="stroke: #A80036; stroke-width: 1.5;" width="175" x="314" y="562.5"/><rect fill="#FEFECE" height="5" style="stroke: #A80036; stroke-width: 1.5;" width="10" x="309" y="567.5"/><rect fill="#FEFECE" height="5" style="stroke: #A80036; stroke-width: 1.5;" width="10" x="309" y="588.7969"/><text fill="#000000" font-family="sans-serif" font-size="14" lengthAdjust="spacingAndGlyphs" textLength="155" x="324" y="585.4951">Middle/Application Tier</text><!--entity IDataMartsETLs--><ellipse cx="86.5" cy="580.5" fill="#FEFECE" filter="url(#fe36a8y5qbtb7)" rx="8" ry="8" style="stroke: #A80036; stroke-width: 2.0;"/><text fill="#000000" font-family="sans-serif" font-size="14" lengthAdjust="spacingAndGlyphs" textLength="63" x="55" y="610.4951">ETL tools</text><path d="M130,553 L130,576.5 L95.7188,580.5 L130,584.5 L130,608.3984 A0,0 0 0 0 130,608.3984 L279,608.3984 A0,0 0 0 0 279,608.3984 L279,563 L269,553 L130,553 A0,0 0 0 0 130,553 " fill="#FBFB77" filter="url(#fe36a8y5qbtb7)" style="stroke: #A80036; stroke-width: 1.0;"/><path d="M269,553 L269,563 L279,563 L269,553 " fill="#FBFB77" style="stroke: #A80036; stroke-width: 1.0;"/><text fill="#000000" font-family="sans-serif" font-size="13" lengthAdjust="spacingAndGlyphs" textLength="128" x="136" y="570.0669">Data micro-services</text><text fill="#000000" font-family="sans-serif" font-size="13" lengthAdjust="spacingAndGlyphs" textLength="41" x="136" y="585.1997">Airflow</text><text fill="#000000" font-family="sans-serif" font-size="13" lengthAdjust="spacingAndGlyphs" textLength="21" x="136" y="600.3325">dbt</text><!--entity DataMarts--><path d="M254.5,678 C254.5,668 301.5,668 301.5,668 C301.5,668 348.5,668 348.5,678 L348.5,703.2969 C348.5,713.2969 301.5,713.2969 301.5,713.2969 C301.5,713.2969 254.5,713.2969 254.5,703.2969 L254.5,678 " fill="#FEFECE" filter="url(#fe36a8y5qbtb7)" style="stroke: #000000; stroke-width: 1.5;"/><path d="M254.5,678 C254.5,688 301.5,688 301.5,688 C301.5,688 348.5,688 348.5,678 " fill="none" style="stroke: #000000; stroke-width: 1.5;"/><text fill="#000000" font-family="sans-serif" font-size="14" lengthAdjust="spacingAndGlyphs" textLength="74" x="264.5" y="704.9951">Data Marts</text><!--entity AnalysisLayer--><rect fill="#FEFECE" filter="url(#fe36a8y5qbtb7)" height="36.2969" style="stroke: #A80036; stroke-width: 1.5;" width="170" x="266.5" y="798"/><rect fill="#FEFECE" height="5" style="stroke: #A80036; stroke-width: 1.5;" width="10" x="261.5" y="803"/><rect fill="#FEFECE" height="5" style="stroke: #A80036; stroke-width: 1.5;" width="10" x="261.5" y="824.2969"/><text fill="#000000" font-family="sans-serif" font-size="14" lengthAdjust="spacingAndGlyphs" textLength="150" x="276.5" y="820.9951">Top/Presentation Tier</text><path d="M472,773 L472,812 L436.5781,816 L472,820 L472,858.6641 A0,0 0 0 0 472,858.6641 L591,858.6641 A0,0 0 0 0 591,858.6641 L591,783 L581,773 L472,773 A0,0 0 0 0 472,773 " fill="#FBFB77" filter="url(#fe36a8y5qbtb7)" style="stroke: #A80036; stroke-width: 1.0;"/><path d="M581,773 L581,783 L591,783 L581,773 " fill="#FBFB77" style="stroke: #A80036; stroke-width: 1.0;"/><text fill="#000000" font-family="sans-serif" font-size="13" lengthAdjust="spacingAndGlyphs" textLength="77" x="478" y="790.0669">BI Platforms</text><text fill="#000000" font-family="sans-serif" font-size="13" lengthAdjust="spacingAndGlyphs" textLength="98" x="478" y="805.1997">Reporting Tools</text><text fill="#000000" font-family="sans-serif" font-size="13" lengthAdjust="spacingAndGlyphs" textLength="34" x="478" y="820.3325">OLAP</text><text fill="#000000" font-family="sans-serif" font-size="13" lengthAdjust="spacingAndGlyphs" textLength="77" x="478" y="835.4653">Dashboards</text><text fill="#000000" font-family="sans-serif" font-size="13" lengthAdjust="spacingAndGlyphs" textLength="76" x="478" y="850.5981">Data Mining</text><!--link DataSources to IDataWarehouseETLs--><path d="M72.5,53.7221 C72.5,76.6286 72.5,115.4656 72.5,136.2957 " fill="none" id="DataSources-IDataWarehouseETLs" style="stroke: #A80036; stroke-width: 1.0;"/><polygon fill="#A80036" points="72.5,141.4244,76.5,132.4244,72.5,136.4244,68.5,132.4244,72.5,141.4244" style="stroke: #A80036; stroke-width: 1.0;"/><!--link IDataWarehouseETLs to DataStaging--><path d="M72.5,159.5018 C72.5,175.2438 72.5,208.3842 72.5,232.42 " fill="none" id="IDataWarehouseETLs-DataStaging" style="stroke: #A80036; stroke-width: 1.0;"/><polygon fill="#A80036" points="72.5,237.7058,76.5,228.7058,72.5,232.7058,68.5,228.7058,72.5,237.7058" style="stroke: #A80036; stroke-width: 1.0;"/><!--link DataStaging to ReconciledData--><path d="M72.5,283.0251 C72.5,298.9711 72.5,320.4653 72.5,337.513 " fill="none" id="DataStaging-ReconciledData" style="stroke: #A80036; stroke-width: 1.0;"/><polygon fill="#A80036" points="72.5,342.6498,76.5,333.6498,72.5,337.6498,68.5,333.6498,72.5,342.6498" style="stroke: #A80036; stroke-width: 1.0;"/><!--link ReconciledData to DataWarehouse--><path d="M109.1838,388.0251 C136.4774,404.7844 173.7519,427.6722 202.1103,445.0853 " fill="none" id="ReconciledData-DataWarehouse" style="stroke: #A80036; stroke-width: 1.0;"/><polygon fill="#A80036" points="206.5822,447.8312,201.0059,439.713,202.3214,445.2148,196.8196,446.5303,206.5822,447.8312" style="stroke: #A80036; stroke-width: 1.0;"/><!--link Metadata to DataWarehouse--><path d="M373.353,390.7657 C346.5936,407.1969 311.8185,428.55 284.9909,445.0231 " fill="none" id="Metadata-DataWarehouse" style="stroke: #A80036; stroke-width: 1.0;"/><polygon fill="#A80036" points="280.4178,447.8312,290.1804,446.5303,284.6786,445.2148,285.9941,439.713,280.4178,447.8312" style="stroke: #A80036; stroke-width: 1.0;"/><polygon fill="#A80036" points="377.8162,388.0251,368.0536,389.326,373.5554,390.6415,372.2399,396.1433,377.8162,388.0251" style="stroke: #A80036; stroke-width: 1.0;"/><!--link DataWarehouse to MiddleTier--><path d="M280.0796,495.9668 C307.6773,515.1804 345.0938,541.2299 371.0665,559.3121 " fill="none" id="DataWarehouse-MiddleTier" style="stroke: #A80036; stroke-width: 1.0;"/><polygon fill="#A80036" points="375.4552,562.3675,370.3544,553.9425,371.3517,559.5107,365.7835,560.508,375.4552,562.3675" style="stroke: #A80036; stroke-width: 1.0;"/><polygon fill="#A80036" points="275.8549,493.0256,280.9557,501.4506,279.9584,495.8824,285.5266,494.8851,275.8549,493.0256" style="stroke: #A80036; stroke-width: 1.0;"/><!--link DataWarehouse to IDataMartsETLs--><path d="M201.8609,493.1036 C175.175,508.445 140.4328,530.0526 112.5,553 C107.2645,557.3011 102.028,562.5994 97.6408,567.3937 " fill="none" id="DataWarehouse-IDataMartsETLs" style="stroke: #A80036; stroke-width: 1.0;"/><polygon fill="#A80036" points="94.174,571.2693,103.1557,567.2283,97.5076,567.5427,97.1932,561.8946,94.174,571.2693" style="stroke: #A80036; stroke-width: 1.0;"/><!--link IDataMartsETLs to DataMarts--><path d="M93.4634,589.5762 C98.3078,595.4226 105.1888,602.8627 112.5,608 C154.8651,637.7679 209.6817,660.2316 249.3609,674.1437 " fill="none" id="IDataMartsETLs-DataMarts" style="stroke: #A80036; stroke-width: 1.0;"/><polygon fill="#A80036" points="254.1229,675.7978,246.9338,669.066,249.3998,674.1571,244.3087,676.623,254.1229,675.7978" style="stroke: #A80036; stroke-width: 1.0;"/><!--link MiddleTier to DataMarts--><path d="M381.2208,602.8071 C365.2458,620.3797 342.917,644.9413 325.953,663.6017 " fill="none" id="MiddleTier-DataMarts" style="stroke: #A80036; stroke-width: 1.0;"/><polygon fill="#A80036" points="322.2011,667.7288,331.2149,663.7601,325.5645,664.0291,325.2955,658.3787,322.2011,667.7288" style="stroke: #A80036; stroke-width: 1.0;"/><polygon fill="#A80036" points="384.987,598.6643,375.9732,602.633,381.6236,602.364,381.8926,608.0144,384.987,598.6643" style="stroke: #A80036; stroke-width: 1.0;"/><!--link DataMarts to AnalysisLayer--><path d="M312.4311,717.937 C321.3874,740.4174 333.9158,771.8636 342.3492,793.0316 " fill="none" id="DataMarts-AnalysisLayer" style="stroke: #A80036; stroke-width: 1.0;"/><polygon fill="#A80036" points="344.2946,797.9145,344.6795,788.0732,342.444,793.2696,337.2476,791.0341,344.2946,797.9145" style="stroke: #A80036; stroke-width: 1.0;"/><polygon fill="#A80036" points="310.5546,713.2271,310.1699,723.0684,312.4053,717.872,317.6017,720.1074,310.5546,713.2271" style="stroke: #A80036; stroke-width: 1.0;"/><!--link MiddleTier to AnalysisLayer--><path d="M396.5656,603.7412 C386.9842,648.8694 365.9652,747.8689 356.4063,792.8914 " fill="none" id="MiddleTier-AnalysisLayer" style="stroke: #A80036; stroke-width: 1.0;"/><polygon fill="#A80036" points="355.3535,797.8501,361.1354,789.8771,356.3919,792.9591,353.3099,788.2156,355.3535,797.8501" style="stroke: #A80036; stroke-width: 1.0;"/><polygon fill="#A80036" points="397.6596,598.5883,391.8777,606.5613,396.6212,603.4793,399.7032,608.2228,397.6596,598.5883" style="stroke: #A80036; stroke-width: 1.0;"/></g></svg>