<svg xmlns="http://www.w3.org/2000/svg" xmlns:xlink="http://www.w3.org/1999/xlink" contentStyleType="text/css" height="1019px" preserveAspectRatio="none" style="width:829px;height:1019px;background:#FFFFFF;" version="1.1" viewBox="0 0 829 1019" width="829px" zoomAndPan="magnify"><defs/><g><line style="stroke:#181818;stroke-width:0.5;stroke-dasharray:5.0,5.0;" x1="58" x2="58" y1="81.2969" y2="938.75"/><line style="stroke:#181818;stroke-width:0.5;stroke-dasharray:5.0,5.0;" x1="499.5" x2="499.5" y1="81.2969" y2="938.75"/><text fill="#000000" font-family="sans-serif" font-size="14" lengthAdjust="spacing" textLength="100" x="5" y="77.9951">Administrator</text><ellipse cx="58" cy="13.5" fill="#E2E2F0" rx="8" ry="8" style="stroke:#181818;stroke-width:0.5;"/><path d="M58,21.5 L58,48.5 M45,29.5 L71,29.5 M58,48.5 L45,63.5 M58,48.5 L71,63.5 " fill="none" style="stroke:#181818;stroke-width:0.5;"/><text fill="#000000" font-family="sans-serif" font-size="14" lengthAdjust="spacing" textLength="100" x="5" y="950.7451">Administrator</text><ellipse cx="58" cy="962.5469" fill="#E2E2F0" rx="8" ry="8" style="stroke:#181818;stroke-width:0.5;"/><path d="M58,970.5469 L58,997.5469 M45,978.5469 L71,978.5469 M58,997.5469 L45,1012.5469 M58,997.5469 L71,1012.5469 " fill="none" style="stroke:#181818;stroke-width:0.5;"/><rect fill="#E2E2F0" height="30.2969" rx="2.5" ry="2.5" style="stroke:#181818;stroke-width:0.5;" width="75" x="462.5" y="50"/><text fill="#000000" font-family="sans-serif" font-size="14" lengthAdjust="spacing" textLength="61" x="469.5" y="69.9951">Watcher</text><rect fill="#E2E2F0" height="30.2969" rx="2.5" ry="2.5" style="stroke:#181818;stroke-width:0.5;" width="75" x="462.5" y="937.75"/><text fill="#000000" font-family="sans-serif" font-size="14" lengthAdjust="spacing" textLength="61" x="469.5" y="957.7451">Watcher</text><rect fill="#EEEEEE" height="3" style="stroke:#EEEEEE;stroke-width:1.0;" width="822" x="0" y="111.8633"/><line style="stroke:#000000;stroke-width:1.0;" x1="0" x2="822" y1="111.8633" y2="111.8633"/><line style="stroke:#000000;stroke-width:1.0;" x1="0" x2="822" y1="114.8633" y2="114.8633"/><rect fill="#EEEEEE" height="23.1328" style="stroke:#000000;stroke-width:2.0;" width="230" x="296" y="101.2969"/><text fill="#000000" font-family="sans-serif" font-size="13" font-weight="bold" lengthAdjust="spacing" textLength="211" x="302" y="117.3638">Create some Audit settings</text><polygon fill="#181818" points="488,151.5625,498,155.5625,488,159.5625,492,155.5625" style="stroke:#181818;stroke-width:1.0;"/><line style="stroke:#181818;stroke-width:1.0;" x1="58" x2="494" y1="155.5625" y2="155.5625"/><text fill="#000000" font-family="sans-serif" font-size="13" lengthAdjust="spacing" textLength="405" x="65" y="150.4966">create new Audit Template (i.e. Audit settings : goal, scope, ...)</text><line style="stroke:#181818;stroke-width:1.0;" x1="500" x2="542" y1="184.6953" y2="184.6953"/><line style="stroke:#181818;stroke-width:1.0;" x1="542" x2="542" y1="184.6953" y2="197.6953"/><line style="stroke:#181818;stroke-width:1.0;" x1="501" x2="542" y1="197.6953" y2="197.6953"/><polygon fill="#181818" points="511,193.6953,501,197.6953,511,201.6953,507,197.6953" style="stroke:#181818;stroke-width:1.0;"/><text fill="#000000" font-family="sans-serif" font-size="13" lengthAdjust="spacing" textLength="212" x="507" y="179.6294">save Audit Template in database</text><polygon fill="#181818" points="69,222.8281,59,226.8281,69,230.8281,65,226.8281" style="stroke:#181818;stroke-width:1.0;"/><line style="stroke:#181818;stroke-width:1.0;stroke-dasharray:2.0,2.0;" x1="63" x2="499" y1="226.8281" y2="226.8281"/><text fill="#000000" font-family="sans-serif" font-size="13" lengthAdjust="spacing" textLength="133" x="75" y="221.7622">Audit Template UUID</text><rect fill="#EEEEEE" height="3" style="stroke:#EEEEEE;stroke-width:1.0;" width="822" x="0" y="255.3945"/><line style="stroke:#000000;stroke-width:1.0;" x1="0" x2="822" y1="255.3945" y2="255.3945"/><line style="stroke:#000000;stroke-width:1.0;" x1="0" x2="822" y1="258.3945" y2="258.3945"/><rect fill="#EEEEEE" height="23.1328" style="stroke:#000000;stroke-width:2.0;" width="165" x="328.5" y="244.8281"/><text fill="#000000" font-family="sans-serif" font-size="13" font-weight="bold" lengthAdjust="spacing" textLength="146" x="334.5" y="260.895">Launch a new Audit</text><polygon fill="#181818" points="488,310.2266,498,314.2266,488,318.2266,492,314.2266" style="stroke:#181818;stroke-width:1.0;"/><line style="stroke:#181818;stroke-width:1.0;" x1="58" x2="494" y1="314.2266" y2="314.2266"/><text fill="#000000" font-family="sans-serif" font-size="13" lengthAdjust="spacing" textLength="382" x="65" y="294.0278">launch new Audit of the Openstack infrastructure resources</text><text fill="#000000" font-family="sans-serif" font-size="13" lengthAdjust="spacing" textLength="264" x="65" y="309.1606">with a previously created Audit Template</text><polygon fill="#181818" points="69,339.3594,59,343.3594,69,347.3594,65,343.3594" style="stroke:#181818;stroke-width:1.0;"/><line style="stroke:#181818;stroke-width:1.0;stroke-dasharray:2.0,2.0;" x1="63" x2="499" y1="343.3594" y2="343.3594"/><text fill="#000000" font-family="sans-serif" font-size="13" lengthAdjust="spacing" textLength="68" x="75" y="338.2935">Audit UUID</text><polygon fill="#181818" points="488,368.4922,498,372.4922,488,376.4922,492,372.4922" style="stroke:#181818;stroke-width:1.0;"/><line style="stroke:#181818;stroke-width:1.0;" x1="58" x2="494" y1="372.4922" y2="372.4922"/><text fill="#000000" font-family="sans-serif" font-size="13" lengthAdjust="spacing" textLength="120" x="65" y="367.4263">get the Audit state</text><polygon fill="#181818" points="69,397.625,59,401.625,69,405.625,65,401.625" style="stroke:#181818;stroke-width:1.0;"/><line style="stroke:#181818;stroke-width:1.0;stroke-dasharray:2.0,2.0;" x1="63" x2="499" y1="401.625" y2="401.625"/><text fill="#000000" font-family="sans-serif" font-size="13" lengthAdjust="spacing" textLength="61" x="75" y="396.5591">ONGOING</text><line style="stroke:#181818;stroke-width:1.0;" x1="500" x2="542" y1="430.7578" y2="430.7578"/><line style="stroke:#181818;stroke-width:1.0;" x1="542" x2="542" y1="430.7578" y2="443.7578"/><line style="stroke:#181818;stroke-width:1.0;" x1="501" x2="542" y1="443.7578" y2="443.7578"/><polygon fill="#181818" points="511,439.7578,501,443.7578,511,447.7578,507,443.7578" style="stroke:#181818;stroke-width:1.0;"/><text fill="#000000" font-family="sans-serif" font-size="13" lengthAdjust="spacing" textLength="308" x="507" y="425.6919">compute a solution to achieve optimization goal</text><polygon fill="#181818" points="488,468.8906,498,472.8906,488,476.8906,492,472.8906" style="stroke:#181818;stroke-width:1.0;"/><line style="stroke:#181818;stroke-width:1.0;" x1="58" x2="494" y1="472.8906" y2="472.8906"/><text fill="#000000" font-family="sans-serif" font-size="13" lengthAdjust="spacing" textLength="120" x="65" y="467.8247">get the Audit state</text><polygon fill="#181818" points="69,498.0234,59,502.0234,69,506.0234,65,502.0234" style="stroke:#181818;stroke-width:1.0;"/><line style="stroke:#181818;stroke-width:1.0;stroke-dasharray:2.0,2.0;" x1="63" x2="499" y1="502.0234" y2="502.0234"/><text fill="#000000" font-family="sans-serif" font-size="13" lengthAdjust="spacing" textLength="79" x="75" y="496.9575">SUCCEEDED</text><rect fill="#EEEEEE" height="3" style="stroke:#EEEEEE;stroke-width:1.0;" width="822" x="0" y="530.5898"/><line style="stroke:#000000;stroke-width:1.0;" x1="0" x2="822" y1="530.5898" y2="530.5898"/><line style="stroke:#000000;stroke-width:1.0;" x1="0" x2="822" y1="533.5898" y2="533.5898"/><rect fill="#EEEEEE" height="23.1328" style="stroke:#000000;stroke-width:2.0;" width="226" x="298" y="520.0234"/><text fill="#000000" font-family="sans-serif" font-size="13" font-weight="bold" lengthAdjust="spacing" textLength="207" x="304" y="536.0903">Get the result of the Audit</text><polygon fill="#181818" points="488,570.2891,498,574.2891,488,578.2891,492,574.2891" style="stroke:#181818;stroke-width:1.0;"/><line style="stroke:#181818;stroke-width:1.0;" x1="58" x2="494" y1="574.2891" y2="574.2891"/><text fill="#000000" font-family="sans-serif" font-size="13" lengthAdjust="spacing" textLength="96" x="65" y="569.2231">get Action Plan</text><polygon fill="#181818" points="69,599.4219,59,603.4219,69,607.4219,65,603.4219" style="stroke:#181818;stroke-width:1.0;"/><line style="stroke:#181818;stroke-width:1.0;stroke-dasharray:2.0,2.0;" x1="63" x2="499" y1="603.4219" y2="603.4219"/><text fill="#000000" font-family="sans-serif" font-size="13" lengthAdjust="spacing" textLength="321" x="75" y="598.356">recommended Action Plan and estimated efficacy</text><line style="stroke:#181818;stroke-width:1.0;" x1="58" x2="100" y1="647.6875" y2="647.6875"/><line style="stroke:#181818;stroke-width:1.0;" x1="100" x2="100" y1="647.6875" y2="660.6875"/><line style="stroke:#181818;stroke-width:1.0;" x1="59" x2="100" y1="660.6875" y2="660.6875"/><polygon fill="#181818" points="69,656.6875,59,660.6875,69,664.6875,65,660.6875" style="stroke:#181818;stroke-width:1.0;"/><text fill="#000000" font-family="sans-serif" font-size="13" lengthAdjust="spacing" textLength="210" x="65" y="627.4888">verify the recommended actions</text><text fill="#000000" font-family="sans-serif" font-size="13" lengthAdjust="spacing" textLength="428" x="65" y="642.6216">and evaluate the estimated gain vs aggressiveness of the solution</text><rect fill="#EEEEEE" height="3" style="stroke:#EEEEEE;stroke-width:1.0;" width="822" x="0" y="689.2539"/><line style="stroke:#000000;stroke-width:1.0;" x1="0" x2="822" y1="689.2539" y2="689.2539"/><line style="stroke:#000000;stroke-width:1.0;" x1="0" x2="822" y1="692.2539" y2="692.2539"/><rect fill="#EEEEEE" height="23.1328" style="stroke:#000000;stroke-width:2.0;" width="305" x="258.5" y="678.6875"/><text fill="#000000" font-family="sans-serif" font-size="13" font-weight="bold" lengthAdjust="spacing" textLength="286" x="264.5" y="694.7544">Launch the recommended Action Plan</text><polygon fill="#181818" points="488,728.9531,498,732.9531,488,736.9531,492,732.9531" style="stroke:#181818;stroke-width:1.0;"/><line style="stroke:#181818;stroke-width:1.0;" x1="58" x2="494" y1="732.9531" y2="732.9531"/><text fill="#000000" font-family="sans-serif" font-size="13" lengthAdjust="spacing" textLength="142" x="65" y="727.8872">launch the Action Plan</text><polygon fill="#181818" points="69,758.0859,59,762.0859,69,766.0859,65,762.0859" style="stroke:#181818;stroke-width:1.0;"/><line style="stroke:#181818;stroke-width:1.0;stroke-dasharray:2.0,2.0;" x1="63" x2="499" y1="762.0859" y2="762.0859"/><text fill="#000000" font-family="sans-serif" font-size="13" lengthAdjust="spacing" textLength="196" x="75" y="757.02">Action Plan has been launched</text><line style="stroke:#181818;stroke-width:1.0;" x1="500" x2="542" y1="791.2188" y2="791.2188"/><line style="stroke:#181818;stroke-width:1.0;" x1="542" x2="542" y1="791.2188" y2="804.2188"/><line style="stroke:#181818;stroke-width:1.0;" x1="501" x2="542" y1="804.2188" y2="804.2188"/><polygon fill="#181818" points="511,800.2188,501,804.2188,511,808.2188,507,804.2188" style="stroke:#181818;stroke-width:1.0;"/><text fill="#000000" font-family="sans-serif" font-size="13" lengthAdjust="spacing" textLength="242" x="507" y="786.1528">trigger Actions on Openstack services</text><polygon fill="#181818" points="488,829.3516,498,833.3516,488,837.3516,492,833.3516" style="stroke:#181818;stroke-width:1.0;"/><line style="stroke:#181818;stroke-width:1.0;" x1="58" x2="494" y1="833.3516" y2="833.3516"/><text fill="#000000" font-family="sans-serif" font-size="13" lengthAdjust="spacing" textLength="158" x="65" y="828.2856">get the Action Plan state</text><polygon fill="#181818" points="69,858.4844,59,862.4844,69,866.4844,65,862.4844" style="stroke:#181818;stroke-width:1.0;"/><line style="stroke:#181818;stroke-width:1.0;stroke-dasharray:2.0,2.0;" x1="63" x2="499" y1="862.4844" y2="862.4844"/><text fill="#000000" font-family="sans-serif" font-size="13" lengthAdjust="spacing" textLength="61" x="75" y="857.4185">ONGOING</text><polygon fill="#181818" points="488,887.6172,498,891.6172,488,895.6172,492,891.6172" style="stroke:#181818;stroke-width:1.0;"/><line style="stroke:#181818;stroke-width:1.0;" x1="58" x2="494" y1="891.6172" y2="891.6172"/><text fill="#000000" font-family="sans-serif" font-size="13" lengthAdjust="spacing" textLength="158" x="65" y="886.5513">get the Action Plan state</text><polygon fill="#181818" points="69,916.75,59,920.75,69,924.75,65,920.75" style="stroke:#181818;stroke-width:1.0;"/><line style="stroke:#181818;stroke-width:1.0;stroke-dasharray:2.0,2.0;" x1="63" x2="499" y1="920.75" y2="920.75"/><text fill="#000000" font-family="sans-serif" font-size="13" lengthAdjust="spacing" textLength="79" x="75" y="915.6841">SUCCEEDED</text><!--SRC=[hLF1Jkim4BpdA_R8asW-e7f5gafL8I7wf4V5XSlYR98LYHtPww3ozJXkIjE0Q0wSabYUsPdP2Ien5fPPpPgTM0nVIR9OmCeI2e4pDS7IPopWI8HruM2nI98p0Cnku0b5bMHX3kg0rFJM0n-fRghkw8fJIiTiSoWCLjVWb6de6j8q_PCSoSvu7ROqPcGD6Gg-eAEHfB-psG0xWkrsTxVHvJrwhKh0WTeBxge3udJVv20bmROXxGJLQz2KMmnOhyHR0alEUAl8FUitbcvMOwbbursrxxFAHlecM8aEVf1Pa4HPVTXoYNNxiDdUFMo-JrwPkl4XDWnrgBomqI06K9LCOIMc4Qxv7UDvjylVrFL_jrgjrxVhmxesFJfawglFw2VjhHkyL57ZlmhrZqCj1SSrwQpRp0a3g3CW5zp6dL6UiqAr_phr_60EBLdEzxto4pL6wj2BoDjYvRjkThTEGmeC5MyTO544quvRqk5nT7vSnx3Buob30zEw7JET6DMGlKG7BqIwvw7i-pQ9vQ88RmTeyA87FuyZstBuMIPrQ31xUiD_dVYpeXy0]--></g></svg>